<svg width="220" height="159" viewBox="0 0 220 159" fill="none" xmlns="http://www.w3.org/2000/svg">
<path fill-rule="evenodd" clip-rule="evenodd" d="M217.528 124.182V144.64C217.528 148.404 214.478 151.453 210.715 151.453H9.87705C6.11499 151.453 3.06458 148.404 3.06458 144.64V124.182H217.528Z" fill="white"/>
<path fill-rule="evenodd" clip-rule="evenodd" d="M12.7316 36.1206H181.412C186.277 36.1206 190.403 39.696 191.095 44.5124L196.563 82.6032C197.23 87.2502 199.532 91.5073 203.057 94.6086L214.136 104.357C216.292 106.255 217.528 108.989 217.528 111.861V138.985C217.528 141.911 215.156 144.282 212.231 144.282H207.464C206.308 144.282 205.319 143.422 205.192 142.272C204.2 133.342 196.716 125.68 187.63 125.68C178.546 125.68 171.062 133.342 170.07 142.272C169.942 143.422 168.953 144.282 167.797 144.282H79.9696C78.9387 144.282 78.0481 143.51 77.9582 142.483C77.181 133.613 69.841 125.68 60.8751 125.68C51.9953 125.68 44.6916 133.489 43.8137 142.27C43.7117 143.285 42.8306 144.043 41.8119 144.049L3.06433 144.282V45.7879C3.06433 40.4484 7.39277 36.1206 12.7316 36.1206Z" fill="#FBCE26"/>
<path fill-rule="evenodd" clip-rule="evenodd" d="M173.462 53.1524V86.2489C173.462 87.6511 174.598 88.7884 176.001 88.7884H189.819C191.367 88.7884 192.556 87.4129 192.331 85.8807L188.111 52.7835C187.928 51.5373 186.859 50.6135 185.599 50.6135H176.001C174.598 50.6135 173.462 51.7501 173.462 53.1524Z" fill="#FDF4BA"/>
<path fill-rule="evenodd" clip-rule="evenodd" d="M138.644 57.3733H159.729C162.976 57.3733 165.625 60.023 165.625 63.2693V131.685L164.046 131.601L163.9 131.602C163.574 131.612 163.163 131.68 162.764 131.835L162.566 131.919C161.71 132.323 161.229 133.052 161.229 134.478V135.976L138.644 135.999C135.398 135.999 132.748 133.35 132.748 130.103V63.2693C132.748 60.023 135.398 57.3733 138.644 57.3733ZM159.899 60.3782L159.729 60.3733H138.644C137.055 60.3733 135.748 61.6799 135.748 63.2693V130.103C135.748 131.693 137.055 132.999 138.643 132.999L158.374 132.978L158.398 132.863C158.766 131.208 159.721 130.016 161.081 129.308L161.288 129.205C161.68 129.021 162.084 128.884 162.492 128.786L162.624 128.758L162.625 63.2693C162.625 61.7365 161.41 60.467 159.899 60.3782Z" fill="#F9E377"/>
<path d="M143.937 100.292C144.766 100.292 145.437 100.964 145.437 101.792C145.437 102.572 144.843 103.212 144.082 103.285L143.937 103.292H138.184C137.355 103.292 136.684 102.62 136.684 101.792C136.684 101.012 137.279 100.372 138.039 100.299L138.184 100.292H143.937Z" fill="#F9E377"/>
<path fill-rule="evenodd" clip-rule="evenodd" d="M146.528 93.9558H140.143C139.065 93.9558 138.184 93.0741 138.184 91.9961V65.087C138.184 64.0097 139.065 63.1273 140.143 63.1273H146.528C147.605 63.1273 148.487 64.0097 148.487 65.087V91.9961C148.487 93.0741 147.605 93.9558 146.528 93.9558Z" fill="#FDF4BA"/>
<path fill-rule="evenodd" clip-rule="evenodd" d="M99.4403 99.7551H30.3752C27.0413 99.7551 24.3394 97.0531 24.3394 93.7192V63.3641C24.3394 60.0302 27.0413 57.3282 30.3752 57.3282H99.4403C102.774 57.3282 105.476 60.0302 105.476 63.3641V93.7192C105.476 97.0531 102.774 99.7551 99.4403 99.7551Z" fill="#FDF4BA"/>
<path fill-rule="evenodd" clip-rule="evenodd" d="M99.4403 106.13H30.3752C27.0413 106.13 24.3394 103.428 24.3394 100.094V90.2017H105.476V100.094C105.476 103.428 102.774 106.13 99.4403 106.13Z" fill="#CAE53C"/>
<path fill-rule="evenodd" clip-rule="evenodd" d="M158.475 93.9558H152.091C151.013 93.9558 150.131 93.0741 150.131 91.9961V65.087C150.131 64.0097 151.013 63.1273 152.091 63.1273H158.475C159.553 63.1273 160.435 64.0097 160.435 65.087V91.9961C160.435 93.0741 159.553 93.9558 158.475 93.9558Z" fill="#FDF4BA"/>
<path fill-rule="evenodd" clip-rule="evenodd" d="M210.66 116.052H217.528V132.313H213.327C211.947 132.313 210.741 131.382 210.392 130.048L207.726 119.852C207.223 117.93 208.673 116.052 210.66 116.052Z" fill="#FF804B"/>
<path fill-rule="evenodd" clip-rule="evenodd" d="M27.9884 74.9288C25.138 74.9288 22.8273 72.6181 22.8273 69.7677V61.6224C22.8273 59.2511 24.75 57.3284 27.1219 57.3284H33.1501V69.7677C33.1501 72.6181 30.8394 74.9288 27.9884 74.9288Z" fill="#FFF9F7"/>
<path fill-rule="evenodd" clip-rule="evenodd" d="M38.3114 74.9288C35.4604 74.9288 33.1497 72.6181 33.1497 69.7677V57.3284H43.4732V69.7677C43.4732 72.6181 41.1624 74.9288 38.3114 74.9288Z" fill="#FF804B"/>
<path fill-rule="evenodd" clip-rule="evenodd" d="M48.6344 74.9288H48.6338C45.7834 74.9288 43.4727 72.6181 43.4727 69.7677V57.3284H53.7955V69.7677C53.7955 72.6181 51.4848 74.9288 48.6344 74.9288Z" fill="#FFF9F7"/>
<path fill-rule="evenodd" clip-rule="evenodd" d="M58.9567 74.9288C56.1057 74.9288 53.7949 72.6181 53.7949 69.7677V57.3284H64.1184V69.7677C64.1184 72.6181 61.8077 74.9288 58.9567 74.9288Z" fill="#FF804B"/>
<path fill-rule="evenodd" clip-rule="evenodd" d="M69.2797 74.9288C66.4287 74.9288 64.1179 72.6181 64.1179 69.7677V57.3284H74.4408V69.7677C74.4408 72.6181 72.13 74.9288 69.2797 74.9288Z" fill="#FFF9F7"/>
<path fill-rule="evenodd" clip-rule="evenodd" d="M79.6019 74.9288C76.7516 74.9288 74.4402 72.6181 74.4402 69.7677V57.3284H84.7637V69.7677C84.7637 72.6181 82.453 74.9288 79.6019 74.9288Z" fill="#FF804B"/>
<path fill-rule="evenodd" clip-rule="evenodd" d="M89.9249 74.9288C87.0739 74.9288 84.7632 72.6181 84.7632 69.7677V57.3284H95.0867V69.7677C95.0867 72.6181 92.7759 74.9288 89.9249 74.9288Z" fill="#FFF9F7"/>
<path fill-rule="evenodd" clip-rule="evenodd" d="M100.314 74.9288C97.4641 74.9288 95.1527 72.6181 95.1527 69.7677V57.3284H101.182C103.553 57.3284 105.476 59.2511 105.476 61.6224V69.7677C105.476 72.6181 103.165 74.9288 100.314 74.9288Z" fill="#FF804B"/>
<path fill-rule="evenodd" clip-rule="evenodd" d="M51.7495 18.6347C51.7495 18.6347 52.3815 -0.713938 66.0345 4.9473C76.4931 9.28338 79.0345 0.355747 84.9066 4.18151C90.7781 8.00792 91.5432 -4.55308 102.512 1.85484C113.481 8.26339 113.991 1.27763 119.093 8.21434C124.194 15.1504 125.215 18.6347 125.215 18.6347H51.7495Z" fill="#CAE53C"/>
<path fill-rule="evenodd" clip-rule="evenodd" d="M52 18C52 18 52.6366 3.46363 66.3889 7.71684C76.9236 10.9745 79.4834 4.26727 85.3983 7.14152C91.3125 10.0162 92.0832 0.579328 103.132 5.39351C114.181 10.2082 114.694 4.95986 119.833 10.1713C124.972 15.3823 126 18 126 18H52Z" fill="#EBF86E"/>
<path fill-rule="evenodd" clip-rule="evenodd" d="M135.878 25.4368H43.9717C39.521 25.4368 35.9125 21.8283 35.9125 17.3769C35.9125 12.9255 39.521 9.31702 43.9717 9.31702H135.878C140.329 9.31702 143.937 12.9255 143.937 17.3769C143.937 21.8283 140.329 25.4368 135.878 25.4368Z" fill="#FF804B"/>
<path fill-rule="evenodd" clip-rule="evenodd" d="M127.885 41.5739H51.9648C45.1032 41.5739 39.5414 36.0121 39.5414 29.1506C39.5414 22.289 45.1032 16.7272 51.9648 16.7272H127.885C134.747 16.7272 140.308 22.289 140.308 29.1506C140.308 36.0121 134.747 41.5739 127.885 41.5739Z" fill="#F9E377"/>
<path fill-rule="evenodd" clip-rule="evenodd" d="M127.885 41.5739H51.9648C45.1032 41.5739 39.5414 36.012 39.5414 29.1505C101.888 36.7428 140.308 29.1505 140.308 29.1505C140.308 36.012 134.747 41.5739 127.885 41.5739Z" fill="#FBCE26"/>
<path d="M53.5358 13.4916C54.4382 12.5272 55.9249 12.4373 56.9347 13.2569L57.0694 13.3743L60.2724 16.3716C60.7003 16.7719 61.4303 16.8005 61.9014 16.4572L62.0052 16.3714L62.6347 15.7826C64.9528 13.6131 68.6112 13.5545 71.0034 15.6073L71.1997 15.7833L72.0128 16.5448C72.4402 16.9446 73.1707 16.9731 73.6409 16.6307L73.7445 16.5451L74.4977 15.8404C76.8152 13.6704 80.4745 13.6118 82.8663 15.6643L83.0627 15.8402L84.0298 16.7456C84.4577 17.1459 85.1871 17.1745 85.658 16.8312L85.7619 16.7454L86.1455 16.3866C88.5281 14.1567 92.3283 14.1567 94.709 16.3858C95.1369 16.786 95.8672 16.8146 96.339 16.4707L96.443 16.3847L96.8258 16.0273C99.1439 13.8578 102.802 13.7991 105.193 15.8509L105.39 16.0267L106.266 16.8466C106.693 17.2465 107.423 17.2751 107.893 16.9323L107.997 16.8466L108.504 16.372C110.823 14.2024 114.481 14.1438 116.872 16.196L117.069 16.372L120.08 19.1905C121.088 20.1339 121.141 21.716 120.197 22.7241C119.295 23.6883 117.808 23.7782 116.798 22.9585L116.664 22.8411L113.653 20.0229C113.225 19.6226 112.495 19.594 112.025 19.9368L111.921 20.0225L111.413 20.4976C109.095 22.6667 105.436 22.7254 103.046 20.6736L102.85 20.4978L101.974 19.6783C101.546 19.278 100.817 19.2494 100.344 19.5937L100.24 19.6798L99.8575 20.0372C97.4757 22.2663 93.6772 22.2663 91.2928 20.0368C90.8662 19.6373 90.1363 19.6088 89.6653 19.952L89.5615 20.0377L89.1779 20.3965C86.8598 22.5661 83.2014 22.6247 80.8097 20.5722L80.6133 20.3963L79.6462 19.491C79.2184 19.0907 78.4887 19.0621 78.0182 19.405L77.9145 19.4907L77.161 20.1959C74.8435 22.3647 71.184 22.4234 68.7923 20.3711L68.596 20.1952L67.7829 19.4336C67.3549 19.0333 66.6255 19.0047 66.1546 19.348L66.0507 19.4338L65.4212 20.0226C63.1031 22.1921 59.4441 22.2507 57.0527 20.1986L56.8564 20.0227L53.6531 17.0251C52.6449 16.0818 52.5924 14.4997 53.5358 13.4916Z" fill="#FDF4BA"/>
<path fill-rule="evenodd" clip-rule="evenodd" d="M38.0202 84.6522H37.536V83.8648C37.536 83.7176 37.4182 83.5998 37.271 83.5998H36.5237V82.3364C36.5237 82.1504 36.3733 82 36.1873 82C36.0013 82 35.8509 82.1504 35.8509 82.3364V83.5998H35.103C34.9564 83.5998 34.8386 83.7176 34.8386 83.8648V84.6522H34.3544C34.1932 84.6522 34.0632 84.7822 34.0632 84.9434V93.2269C34.0632 93.3875 34.1932 93.5181 34.3544 93.5181H38.0202C38.1808 93.5181 38.3114 93.3875 38.3114 93.2269V84.9434C38.3114 84.7822 38.1808 84.6522 38.0202 84.6522Z" fill="#FBCE26"/>
<path fill-rule="evenodd" clip-rule="evenodd" d="M37.146 92.9258C36.8428 92.9258 36.5981 92.6799 36.5981 92.3779V86.2535C36.5981 85.9509 36.8428 85.705 37.146 85.705C37.4493 85.705 37.694 85.9509 37.694 86.2535V92.3779C37.694 92.6799 37.4493 92.9258 37.146 92.9258Z" fill="#F9E377"/>
<path fill-rule="evenodd" clip-rule="evenodd" d="M44.9132 84.6522H44.429V83.8648C44.429 83.7176 44.3105 83.5998 44.164 83.5998H43.416V82.3364C43.416 82.1504 43.2657 82 43.0796 82C42.8936 82 42.7433 82.1504 42.7433 82.3364V83.5998H41.9953C41.8488 83.5998 41.7309 83.7176 41.7309 83.8648V84.6522H41.2467C41.0862 84.6522 40.9556 84.7822 40.9556 84.9434V93.2269C40.9556 93.3875 41.0862 93.5181 41.2467 93.5181H44.9132C45.0738 93.5181 45.2037 93.3875 45.2037 93.2269V84.9434C45.2037 84.7822 45.0738 84.6522 44.9132 84.6522Z" fill="#FF804B"/>
<path fill-rule="evenodd" clip-rule="evenodd" d="M44.0384 92.9258C43.7358 92.9258 43.4905 92.6799 43.4905 92.3779V86.2535C43.4905 85.9509 43.7358 85.705 44.0384 85.705C44.3416 85.705 44.5869 85.9509 44.5869 86.2535V92.3779C44.5869 92.6799 44.3416 92.9258 44.0384 92.9258Z" fill="#F9E377"/>
<path d="M23.217 111.637H107.988" stroke="#F9E377" stroke-width="3" stroke-linecap="round" stroke-linejoin="round"/>
<path fill-rule="evenodd" clip-rule="evenodd" d="M216.856 144.283H212.668C211.123 144.283 209.871 143.03 209.871 141.485V137.296C209.871 135.751 211.123 134.5 212.668 134.5H216.856C218.401 134.5 219.654 135.751 219.654 137.296V141.485C219.654 143.03 218.401 144.283 216.856 144.283Z" fill="white"/>
<path fill-rule="evenodd" clip-rule="evenodd" d="M6.98604 144.283H2.79776C1.2528 144.283 -0.000366211 143.03 -0.000366211 141.485V137.296C-0.000366211 135.751 1.2528 134.5 2.79776 134.5H6.98604C8.531 134.5 9.78353 135.751 9.78353 137.296V141.485C9.78353 143.03 8.531 144.283 6.98604 144.283Z" fill="white"/>
<path fill-rule="evenodd" clip-rule="evenodd" d="M75.8006 143.269C75.8006 135.166 69.2315 128.597 61.1283 128.597C53.0251 128.597 46.4553 135.166 46.4553 143.269C46.4553 151.373 53.0251 157.942 61.1283 157.942C69.2315 157.942 75.8006 151.373 75.8006 143.269Z" fill="#365001"/>
<path fill-rule="evenodd" clip-rule="evenodd" d="M68.6314 143.269C68.6314 139.126 65.2726 135.767 61.1283 135.767C56.9847 135.767 53.6252 139.126 53.6252 143.269C53.6252 147.414 56.9847 150.772 61.1283 150.772C65.2726 150.772 68.6314 147.414 68.6314 143.269Z" fill="white"/>
<path fill-rule="evenodd" clip-rule="evenodd" d="M67.4885 143.269C67.4885 139.757 64.6406 136.91 61.1283 136.91C57.616 136.91 54.7682 139.757 54.7682 143.269C54.7682 146.782 57.616 149.629 61.1283 149.629C64.6406 149.629 67.4885 146.782 67.4885 143.269Z" fill="#FBCE26"/>
<path fill-rule="evenodd" clip-rule="evenodd" d="M61.7341 143.269C61.7341 142.935 61.4627 142.664 61.1282 142.664C60.7937 142.664 60.5229 142.935 60.5229 143.269C60.5229 143.604 60.7937 143.875 61.1282 143.875C61.4627 143.875 61.7341 143.604 61.7341 143.269Z" fill="white"/>
<path fill-rule="evenodd" clip-rule="evenodd" d="M61.2463 141.881L61.066 141.877C60.7417 141.87 60.4582 141.659 60.3588 141.351L59.5504 138.83C59.3917 138.335 59.7676 137.83 60.2881 137.84L62.1848 137.878C62.7046 137.889 63.0608 138.408 62.8811 138.896L61.9739 141.383C61.8624 141.687 61.57 141.888 61.2463 141.881Z" fill="white"/>
<path fill-rule="evenodd" clip-rule="evenodd" d="M62.8316 143.489L62.8354 143.31C62.8418 142.986 63.0539 142.702 63.3623 142.602L65.882 141.794C66.3776 141.636 66.8822 142.011 66.872 142.532L66.8344 144.428C66.8243 144.948 66.3044 145.304 65.8164 145.125L63.3298 144.218C63.0259 144.106 62.8252 143.814 62.8316 143.489Z" fill="white"/>
<path fill-rule="evenodd" clip-rule="evenodd" d="M61.0105 144.658L61.1908 144.662C61.5144 144.669 61.7986 144.88 61.898 145.189L62.7058 147.708C62.8651 148.204 62.4892 148.709 61.9687 148.699L60.0721 148.661C59.5522 148.651 59.196 148.131 59.3751 147.643L60.2829 145.156C60.3938 144.852 60.6862 144.652 61.0105 144.658Z" fill="white"/>
<path fill-rule="evenodd" clip-rule="evenodd" d="M59.4253 143.049L59.4214 143.229C59.4144 143.553 59.2029 143.837 58.8946 143.937L56.3749 144.744C55.8792 144.904 55.3746 144.528 55.3842 144.007L55.4224 142.111C55.4326 141.591 55.9525 141.235 56.4405 141.414L58.9271 142.322C59.231 142.433 59.4316 142.725 59.4253 143.049Z" fill="white"/>
<path fill-rule="evenodd" clip-rule="evenodd" d="M202.345 143.269C202.345 135.166 195.776 128.597 187.673 128.597C179.57 128.597 173 135.166 173 143.269C173 151.373 179.57 157.942 187.673 157.942C195.776 157.942 202.345 151.373 202.345 143.269Z" fill="#365001"/>
<path fill-rule="evenodd" clip-rule="evenodd" d="M195.176 143.269C195.176 139.126 191.817 135.767 187.673 135.767C183.529 135.767 180.17 139.126 180.17 143.269C180.17 147.414 183.529 150.772 187.673 150.772C191.817 150.772 195.176 147.414 195.176 143.269Z" fill="white"/>
<path fill-rule="evenodd" clip-rule="evenodd" d="M194.033 143.269C194.033 139.757 191.185 136.91 187.673 136.91C184.161 136.91 181.313 139.757 181.313 143.269C181.313 146.782 184.161 149.629 187.673 149.629C191.185 149.629 194.033 146.782 194.033 143.269Z" fill="#FBCE26"/>
<path fill-rule="evenodd" clip-rule="evenodd" d="M188.279 143.269C188.279 142.935 188.007 142.664 187.673 142.664C187.338 142.664 187.068 142.935 187.068 143.269C187.068 143.604 187.338 143.875 187.673 143.875C188.007 143.875 188.279 143.604 188.279 143.269Z" fill="white"/>
<path fill-rule="evenodd" clip-rule="evenodd" d="M187.791 141.881L187.611 141.877C187.286 141.87 187.003 141.659 186.904 141.351L186.095 138.83C185.936 138.335 186.312 137.83 186.833 137.84L188.729 137.878C189.249 137.889 189.605 138.408 189.426 138.896L188.519 141.383C188.407 141.687 188.115 141.888 187.791 141.881Z" fill="white"/>
<path fill-rule="evenodd" clip-rule="evenodd" d="M189.376 143.489L189.38 143.31C189.386 142.986 189.599 142.702 189.907 142.602L192.427 141.794C192.922 141.636 193.427 142.011 193.417 142.532L193.379 144.428C193.369 144.948 192.849 145.304 192.361 145.125L189.874 144.218C189.571 144.106 189.37 143.814 189.376 143.489Z" fill="white"/>
<path fill-rule="evenodd" clip-rule="evenodd" d="M187.555 144.658L187.735 144.662C188.059 144.669 188.343 144.88 188.443 145.189L189.25 147.708C189.41 148.204 189.034 148.709 188.513 148.699L186.617 148.661C186.097 148.651 185.741 148.131 185.92 147.643L186.828 145.156C186.938 144.852 187.231 144.652 187.555 144.658Z" fill="white"/>
<path fill-rule="evenodd" clip-rule="evenodd" d="M185.97 143.049L185.966 143.229C185.959 143.553 185.748 143.837 185.439 143.937L182.92 144.744C182.424 144.904 181.919 144.528 181.929 144.007L181.967 142.111C181.977 141.591 182.497 141.235 182.985 141.414L185.472 142.322C185.776 142.433 185.976 142.725 185.97 143.049Z" fill="white"/>
</svg>
