<svg width="381" height="316" viewBox="0 0 381 316" fill="none" xmlns="http://www.w3.org/2000/svg">
<path fill-rule="evenodd" clip-rule="evenodd" d="M68.8423 79.5136C96.9308 30.5323 147.984 0 205.059 0C206.164 0 207.059 0.89543 207.059 2V157.501C207.059 159.037 205.399 160 204.066 159.236L69.5836 82.2442C68.6245 81.6951 68.2925 80.4722 68.8423 79.5136ZM203.059 154.05V4.013L201.729 4.0356C148.566 5.1734 101.125 33.5101 73.9821 78.6598L73.3191 79.774L203.059 154.05Z" fill="white"/>
<path fill-rule="evenodd" clip-rule="evenodd" d="M69.5467 237.368C41.1719 188.552 40.2567 129.072 68.7944 79.6434C69.3467 78.6868 70.5699 78.3591 71.5264 78.9113L206.194 156.662C207.524 157.43 207.528 159.349 206.2 160.122L72.2821 238.091C71.327 238.647 70.102 238.323 69.5467 237.368ZM201.206 158.401L71.2698 83.382L70.6243 84.5451C45.028 131.155 45.8476 186.409 71.3771 232.489L72.0107 233.621L201.206 158.401Z" fill="white"/>
<path fill-rule="evenodd" clip-rule="evenodd" d="M342.217 235.99C314.128 284.971 263.075 315.504 206 315.504C204.895 315.504 204 314.608 204 313.504L204 158.003C204 156.467 205.66 155.504 206.993 156.267L341.475 233.26C342.434 233.809 342.766 235.031 342.217 235.99ZM208 161.453L208 311.491L209.33 311.468C262.493 310.33 309.934 281.994 337.077 236.844L337.74 235.73L208 161.453Z" fill="white"/>
<path fill-rule="evenodd" clip-rule="evenodd" d="M69.2651 235.99C97.3536 284.971 148.407 315.504 205.482 315.504C206.587 315.504 207.482 314.608 207.482 313.504L207.482 158.003C207.482 156.467 205.822 155.504 204.488 156.267L70.0064 233.26C69.0473 233.809 68.7154 235.031 69.2651 235.99ZM203.482 161.453L203.482 311.491L202.152 311.468C148.989 310.33 101.547 281.994 74.4049 236.844L73.7421 235.73L203.482 161.453Z" fill="white"/>
<path fill-rule="evenodd" clip-rule="evenodd" d="M340.935 79.1361C369.31 127.952 370.225 187.432 341.687 236.86C341.135 237.817 339.912 238.145 338.955 237.592L204.288 159.842C202.957 159.074 202.954 157.155 204.281 156.382L338.2 78.4128C339.155 77.8568 340.38 78.1807 340.935 79.1361ZM209.275 158.103L339.212 233.122L339.857 231.959C365.454 185.349 364.634 130.095 339.105 84.0142L338.471 82.8831L209.275 158.103Z" fill="white"/>
<path fill-rule="evenodd" clip-rule="evenodd" d="M341.794 79.5136C313.705 30.5323 262.652 0 205.577 0C204.472 0 203.577 0.89543 203.577 2V157.501C203.577 159.037 205.237 160 206.57 159.236L341.052 82.2442C342.012 81.6951 342.343 80.4722 341.794 79.5136ZM207.577 154.05V4.013L208.907 4.0356C262.07 5.1734 309.511 33.5101 336.654 78.6598L337.317 79.774L207.577 154.05Z" fill="white"/>
<path fill-rule="evenodd" clip-rule="evenodd" d="M203.059 154.05V101.15L158.427 128.416L203.059 154.05Z" fill="#5F9AFF"/>
<path fill-rule="evenodd" clip-rule="evenodd" d="M207.577 154.05L280.963 111.688L207.577 63.1183L207.577 154.05Z" fill="#5F9AFF"/>
<path fill-rule="evenodd" clip-rule="evenodd" d="M210 158L281.935 199.421V116.12L210 158Z" fill="#5C97FF"/>
<path fill-rule="evenodd" clip-rule="evenodd" d="M208 162L254.873 189.062L208 214.686L208 162Z" fill="#5F9AFF"/>
<path fill-rule="evenodd" clip-rule="evenodd" d="M203.482 162.236L155.161 189.861L203.482 228.631V162.236Z" fill="#5F9AFF"/>
<path fill-rule="evenodd" clip-rule="evenodd" d="M201.206 158.104L180.302 170.222L180.302 146.423L201.206 158.104Z" fill="#5F9AFF"/>
<path d="M112.944 81.9175H111.918V80H106.305V81.9229H105.274L105.269 79.1567H105.908C106.244 78.7772 106.511 78.2687 106.708 77.6313C106.909 76.9904 107.034 76.2886 107.084 75.5259L107.256 72.1797H111.934V79.1567H112.955L112.944 81.9175ZM107.084 79.1567H110.897V73.0283H108.25L108.137 75.3271C108.09 76.2259 107.97 76.9922 107.777 77.626C107.587 78.2598 107.356 78.77 107.084 79.1567ZM118.933 77.1587C118.933 78.0431 118.73 78.7557 118.326 79.2964C117.921 79.8371 117.373 80.1074 116.682 80.1074C115.977 80.1074 115.422 79.8836 115.017 79.436V82.2344H114.023V74.1885H114.931L114.979 74.833C115.384 74.3317 115.946 74.0811 116.666 74.0811C117.364 74.0811 117.916 74.3442 118.32 74.8706C118.729 75.397 118.933 76.1292 118.933 77.0674V77.1587ZM117.939 77.0459C117.939 76.3906 117.799 75.8732 117.52 75.4937C117.241 75.1141 116.858 74.9243 116.371 74.9243C115.769 74.9243 115.318 75.1911 115.017 75.7246V78.5015C115.314 79.0314 115.769 79.2964 116.381 79.2964C116.858 79.2964 117.235 79.1084 117.515 78.7324C117.798 78.3529 117.939 77.7907 117.939 77.0459ZM122.037 78.5444L123.391 74.1885H124.454L122.118 80.897C121.756 81.8638 121.181 82.3472 120.394 82.3472L120.206 82.3311L119.835 82.2612V81.4556L120.104 81.4771C120.44 81.4771 120.701 81.409 120.888 81.2729C121.077 81.1369 121.233 80.888 121.355 80.5264L121.575 79.9355L119.502 74.1885H120.587L122.037 78.5444ZM129.981 77.4756H129.283V80H128.289V77.4756H127.591L125.963 80H124.707L126.785 76.9922L124.905 74.1885H126.108L127.607 76.5947H128.289V74.1885H129.283V76.5947H129.959L131.469 74.1885H132.672L130.787 76.9976L132.865 80H131.608L129.981 77.4756ZM136.319 74.5215C137.049 74.5215 137.633 74.7668 138.07 75.2573C138.51 75.7443 138.73 76.387 138.73 77.1855V77.2769C138.73 77.8247 138.625 78.3153 138.414 78.7485C138.202 79.1782 137.898 79.513 137.5 79.7529C137.107 79.9893 136.652 80.1074 136.136 80.1074C135.356 80.1074 134.727 79.8478 134.251 79.3286C133.775 78.8058 133.537 78.1058 133.537 77.2285V76.7451C133.537 75.5241 133.762 74.5537 134.213 73.834C134.668 73.1143 135.338 72.6756 136.222 72.5181C136.723 72.4285 137.062 72.3193 137.237 72.1904C137.413 72.0615 137.5 71.8843 137.5 71.6587H138.317C138.317 72.1063 138.215 72.4554 138.011 72.7061C137.81 72.9567 137.488 73.134 137.044 73.2378L136.303 73.4043C135.712 73.5439 135.268 73.7803 134.971 74.1133C134.677 74.4427 134.486 74.8831 134.396 75.4346C134.922 74.8258 135.563 74.5215 136.319 74.5215ZM136.125 75.3379C135.639 75.3379 135.252 75.5026 134.965 75.832C134.679 76.1579 134.536 76.6108 134.536 77.1909V77.2769C134.536 77.8999 134.679 78.394 134.965 78.7593C135.255 79.1209 135.646 79.3018 136.136 79.3018C136.63 79.3018 137.021 79.1191 137.307 78.7539C137.594 78.3887 137.737 77.8551 137.737 77.1533C137.737 76.6055 137.592 76.1668 137.302 75.8374C137.015 75.5044 136.623 75.3379 136.125 75.3379ZM143.436 80C143.378 79.8854 143.332 79.6813 143.296 79.3877C142.834 79.8675 142.283 80.1074 141.642 80.1074C141.069 80.1074 140.598 79.9463 140.229 79.624C139.864 79.2982 139.681 78.8864 139.681 78.3887C139.681 77.7835 139.91 77.3145 140.369 76.9814C140.831 76.6449 141.479 76.4766 142.313 76.4766H143.28V76.02C143.28 75.6727 143.176 75.397 142.968 75.1929C142.761 74.9852 142.454 74.8813 142.05 74.8813C141.695 74.8813 141.398 74.9709 141.158 75.1499C140.918 75.3289 140.798 75.5456 140.798 75.7998H139.799C139.799 75.5098 139.901 75.2305 140.105 74.9619C140.313 74.6898 140.592 74.4749 140.943 74.3174C141.298 74.1598 141.686 74.0811 142.109 74.0811C142.778 74.0811 143.303 74.2493 143.683 74.5859C144.062 74.9189 144.259 75.3791 144.273 75.9663V78.6411C144.273 79.1746 144.341 79.599 144.478 79.9141V80H143.436ZM141.787 79.2427C142.098 79.2427 142.394 79.1621 142.673 79.001C142.952 78.8398 143.154 78.6304 143.28 78.3726V77.1802H142.501C141.284 77.1802 140.675 77.5365 140.675 78.249C140.675 78.5605 140.779 78.804 140.986 78.9795C141.194 79.1549 141.461 79.2427 141.787 79.2427Z" fill="#111259"/>
<path d="M267.939 76.9385V80H266.908V72.1797H269.792C270.648 72.1797 271.317 72.3981 271.801 72.835C272.288 73.2718 272.531 73.8501 272.531 74.5698C272.531 75.3289 272.293 75.9144 271.817 76.3262C271.344 76.7344 270.666 76.9385 269.781 76.9385H267.939ZM267.939 76.0952H269.792C270.343 76.0952 270.766 75.9663 271.06 75.7085C271.353 75.4471 271.5 75.0711 271.5 74.5806C271.5 74.1151 271.353 73.7427 271.06 73.4634C270.766 73.1841 270.363 73.0391 269.851 73.0283H267.939V76.0952ZM277.215 80C277.158 79.8854 277.111 79.6813 277.075 79.3877C276.613 79.8675 276.062 80.1074 275.421 80.1074C274.848 80.1074 274.377 79.9463 274.008 79.624C273.643 79.2982 273.46 78.8864 273.46 78.3887C273.46 77.7835 273.69 77.3145 274.148 76.9814C274.61 76.6449 275.258 76.4766 276.092 76.4766H277.059V76.02C277.059 75.6727 276.955 75.397 276.748 75.1929C276.54 74.9852 276.234 74.8813 275.829 74.8813C275.475 74.8813 275.177 74.9709 274.938 75.1499C274.698 75.3289 274.578 75.5456 274.578 75.7998H273.579C273.579 75.5098 273.681 75.2305 273.885 74.9619C274.092 74.6898 274.372 74.4749 274.723 74.3174C275.077 74.1598 275.466 74.0811 275.888 74.0811C276.558 74.0811 277.082 74.2493 277.462 74.5859C277.841 74.9189 278.038 75.3791 278.053 75.9663V78.6411C278.053 79.1746 278.121 79.599 278.257 79.9141V80H277.215ZM275.566 79.2427C275.877 79.2427 276.173 79.1621 276.452 79.001C276.731 78.8398 276.934 78.6304 277.059 78.3726V77.1802H276.28C275.063 77.1802 274.454 77.5365 274.454 78.249C274.454 78.5605 274.558 78.804 274.766 78.9795C274.973 79.1549 275.24 79.2427 275.566 79.2427ZM282.162 74.5215C282.892 74.5215 283.476 74.7668 283.913 75.2573C284.353 75.7443 284.573 76.387 284.573 77.1855V77.2769C284.573 77.8247 284.468 78.3153 284.256 78.7485C284.045 79.1782 283.741 79.513 283.343 79.7529C282.949 79.9893 282.495 80.1074 281.979 80.1074C281.198 80.1074 280.57 79.8478 280.094 79.3286C279.618 78.8058 279.379 78.1058 279.379 77.2285V76.7451C279.379 75.5241 279.605 74.5537 280.056 73.834C280.511 73.1143 281.181 72.6756 282.065 72.5181C282.566 72.4285 282.905 72.3193 283.08 72.1904C283.256 72.0615 283.343 71.8843 283.343 71.6587H284.16C284.16 72.1063 284.058 72.4554 283.854 72.7061C283.653 72.9567 283.331 73.134 282.887 73.2378L282.146 73.4043C281.555 73.5439 281.111 73.7803 280.813 74.1133C280.52 74.4427 280.328 74.8831 280.239 75.4346C280.765 74.8258 281.406 74.5215 282.162 74.5215ZM281.968 75.3379C281.481 75.3379 281.095 75.5026 280.808 75.832C280.522 76.1579 280.378 76.6108 280.378 77.1909V77.2769C280.378 77.8999 280.522 78.394 280.808 78.7593C281.098 79.1209 281.488 79.3018 281.979 79.3018C282.473 79.3018 282.863 79.1191 283.15 78.7539C283.436 78.3887 283.58 77.8551 283.58 77.1533C283.58 76.6055 283.435 76.1668 283.145 75.8374C282.858 75.5044 282.466 75.3379 281.968 75.3379ZM285.427 77.0405C285.427 76.4712 285.538 75.9591 285.76 75.5044C285.986 75.0496 286.297 74.6987 286.695 74.4517C287.096 74.2046 287.552 74.0811 288.064 74.0811C288.856 74.0811 289.495 74.355 289.982 74.9028C290.472 75.4507 290.718 76.1794 290.718 77.0889V77.1587C290.718 77.7244 290.609 78.2329 290.39 78.6841C290.175 79.1317 289.866 79.4808 289.461 79.7314C289.06 79.9821 288.598 80.1074 288.075 80.1074C287.287 80.1074 286.648 79.8335 286.158 79.2856C285.671 78.7378 285.427 78.0127 285.427 77.1104V77.0405ZM286.426 77.1587C286.426 77.8032 286.575 78.3206 286.872 78.7109C287.173 79.1012 287.574 79.2964 288.075 79.2964C288.58 79.2964 288.981 79.0994 289.278 78.7056C289.576 78.3081 289.724 77.7531 289.724 77.0405C289.724 76.4032 289.572 75.8875 289.268 75.4937C288.967 75.0962 288.566 74.8975 288.064 74.8975C287.574 74.8975 287.178 75.0926 286.877 75.4829C286.577 75.8732 286.426 76.4318 286.426 77.1587ZM296.164 74.9941H294.214V80H293.221V74.9941H291.309V74.1885H296.164V74.9941ZM300.633 80C300.576 79.8854 300.529 79.6813 300.493 79.3877C300.031 79.8675 299.48 80.1074 298.839 80.1074C298.266 80.1074 297.795 79.9463 297.426 79.624C297.061 79.2982 296.878 78.8864 296.878 78.3887C296.878 77.7835 297.108 77.3145 297.566 76.9814C298.028 76.6449 298.676 76.4766 299.51 76.4766H300.477V76.02C300.477 75.6727 300.373 75.397 300.166 75.1929C299.958 74.9852 299.652 74.8813 299.247 74.8813C298.893 74.8813 298.595 74.9709 298.355 75.1499C298.116 75.3289 297.996 75.5456 297.996 75.7998H296.997C296.997 75.5098 297.099 75.2305 297.303 74.9619C297.51 74.6898 297.79 74.4749 298.141 74.3174C298.495 74.1598 298.884 74.0811 299.306 74.0811C299.976 74.0811 300.5 74.2493 300.88 74.5859C301.259 74.9189 301.456 75.3791 301.471 75.9663V78.6411C301.471 79.1746 301.539 79.599 301.675 79.9141V80H300.633ZM298.984 79.2427C299.295 79.2427 299.591 79.1621 299.87 79.001C300.149 78.8398 300.352 78.6304 300.477 78.3726V77.1802H299.698C298.481 77.1802 297.872 77.5365 297.872 78.249C297.872 78.5605 297.976 78.804 298.184 78.9795C298.391 79.1549 298.658 79.2427 298.984 79.2427Z" fill="#111259"/>
<path d="M292.66 158.519C292.563 159.346 292.257 159.985 291.742 160.436C291.23 160.884 290.548 161.107 289.695 161.107C288.771 161.107 288.03 160.776 287.472 160.114C286.917 159.451 286.639 158.565 286.639 157.455V156.703C286.639 155.976 286.768 155.337 287.026 154.786C287.287 154.234 287.656 153.812 288.132 153.518C288.609 153.221 289.16 153.072 289.787 153.072C290.617 153.072 291.283 153.305 291.785 153.771C292.286 154.232 292.578 154.873 292.66 155.693H291.624C291.534 155.07 291.339 154.619 291.038 154.34C290.741 154.061 290.324 153.921 289.787 153.921C289.128 153.921 288.61 154.164 288.234 154.651C287.862 155.138 287.676 155.831 287.676 156.73V157.487C287.676 158.336 287.853 159.011 288.208 159.512C288.562 160.014 289.058 160.264 289.695 160.264C290.268 160.264 290.707 160.135 291.011 159.877C291.319 159.616 291.523 159.163 291.624 158.519H292.66ZM297.505 161C297.448 160.885 297.401 160.681 297.365 160.388C296.903 160.868 296.352 161.107 295.711 161.107C295.138 161.107 294.667 160.946 294.298 160.624C293.933 160.298 293.75 159.886 293.75 159.389C293.75 158.784 293.98 158.314 294.438 157.981C294.9 157.645 295.548 157.477 296.382 157.477H297.349V157.02C297.349 156.673 297.245 156.397 297.038 156.193C296.83 155.985 296.524 155.881 296.119 155.881C295.765 155.881 295.467 155.971 295.228 156.15C294.988 156.329 294.868 156.546 294.868 156.8H293.869C293.869 156.51 293.971 156.23 294.175 155.962C294.382 155.69 294.662 155.475 295.013 155.317C295.367 155.16 295.756 155.081 296.178 155.081C296.848 155.081 297.372 155.249 297.752 155.586C298.132 155.919 298.328 156.379 298.343 156.966V159.641C298.343 160.175 298.411 160.599 298.547 160.914V161H297.505ZM295.856 160.243C296.167 160.243 296.463 160.162 296.742 160.001C297.021 159.84 297.224 159.63 297.349 159.373V158.18H296.57C295.353 158.18 294.744 158.536 294.744 159.249C294.744 159.561 294.848 159.804 295.056 159.979C295.263 160.155 295.53 160.243 295.856 160.243ZM303.247 159.684L305.223 155.188H306.464V161H305.47V156.773L303.59 161H302.903L300.985 156.682V161H299.992V155.188H301.281L303.247 159.684ZM307.801 158.041C307.801 157.471 307.912 156.959 308.134 156.504C308.36 156.05 308.671 155.699 309.069 155.452C309.47 155.205 309.926 155.081 310.438 155.081C311.23 155.081 311.869 155.355 312.356 155.903C312.847 156.451 313.092 157.179 313.092 158.089V158.159C313.092 158.724 312.983 159.233 312.764 159.684C312.549 160.132 312.24 160.481 311.835 160.731C311.434 160.982 310.972 161.107 310.449 161.107C309.661 161.107 309.022 160.833 308.532 160.286C308.045 159.738 307.801 159.013 307.801 158.11V158.041ZM308.8 158.159C308.8 158.803 308.949 159.321 309.246 159.711C309.547 160.101 309.948 160.296 310.449 160.296C310.954 160.296 311.355 160.099 311.652 159.706C311.95 159.308 312.098 158.753 312.098 158.041C312.098 157.403 311.946 156.888 311.642 156.494C311.341 156.096 310.94 155.897 310.438 155.897C309.948 155.897 309.552 156.093 309.251 156.483C308.951 156.873 308.8 157.432 308.8 158.159ZM319.247 158.159C319.247 159.043 319.045 159.756 318.64 160.296C318.236 160.837 317.688 161.107 316.997 161.107C316.291 161.107 315.736 160.884 315.332 160.436V163.234H314.338V155.188H315.246L315.294 155.833C315.699 155.332 316.261 155.081 316.98 155.081C317.679 155.081 318.23 155.344 318.635 155.871C319.043 156.397 319.247 157.129 319.247 158.067V158.159ZM318.253 158.046C318.253 157.391 318.114 156.873 317.834 156.494C317.555 156.114 317.172 155.924 316.685 155.924C316.083 155.924 315.632 156.191 315.332 156.725V159.501C315.629 160.031 316.083 160.296 316.696 160.296C317.172 160.296 317.55 160.108 317.829 159.732C318.112 159.353 318.253 158.791 318.253 158.046ZM324.103 161C324.045 160.885 323.999 160.681 323.963 160.388C323.501 160.868 322.95 161.107 322.309 161.107C321.736 161.107 321.265 160.946 320.896 160.624C320.531 160.298 320.348 159.886 320.348 159.389C320.348 158.784 320.577 158.314 321.036 157.981C321.498 157.645 322.146 157.477 322.98 157.477H323.947V157.02C323.947 156.673 323.843 156.397 323.635 156.193C323.428 155.985 323.121 155.881 322.717 155.881C322.362 155.881 322.065 155.971 321.825 156.15C321.585 156.329 321.465 156.546 321.465 156.8H320.466C320.466 156.51 320.568 156.23 320.772 155.962C320.98 155.69 321.259 155.475 321.61 155.317C321.965 155.16 322.353 155.081 322.776 155.081C323.445 155.081 323.97 155.249 324.35 155.586C324.729 155.919 324.926 156.379 324.94 156.966V159.641C324.94 160.175 325.008 160.599 325.145 160.914V161H324.103ZM322.454 160.243C322.765 160.243 323.061 160.162 323.34 160.001C323.619 159.84 323.821 159.63 323.947 159.373V158.18H323.168C321.951 158.18 321.342 158.536 321.342 159.249C321.342 159.561 321.446 159.804 321.653 159.979C321.861 160.155 322.128 160.243 322.454 160.243ZM329.694 156.778C329.694 156.506 329.59 156.291 329.382 156.134C329.175 155.973 328.89 155.892 328.528 155.892C328.177 155.892 327.884 155.983 327.647 156.166C327.415 156.349 327.298 156.563 327.298 156.811H326.31C326.31 156.306 326.521 155.892 326.944 155.57C327.366 155.248 327.895 155.086 328.528 155.086C329.209 155.086 329.739 155.233 330.118 155.527C330.498 155.817 330.688 156.232 330.688 156.773C330.688 157.034 330.609 157.274 330.451 157.493C330.294 157.711 330.07 157.885 329.78 158.014C330.457 158.243 330.795 158.694 330.795 159.367C330.795 159.901 330.589 160.323 330.177 160.635C329.765 160.946 329.216 161.102 328.528 161.102C327.859 161.102 327.306 160.939 326.869 160.613C326.435 160.284 326.219 159.84 326.219 159.281H327.207C327.207 159.564 327.332 159.808 327.583 160.012C327.837 160.212 328.152 160.312 328.528 160.312C328.908 160.312 329.214 160.225 329.447 160.049C329.68 159.874 329.796 159.646 329.796 159.367C329.796 159.041 329.697 158.809 329.5 158.669C329.307 158.526 329.005 158.454 328.593 158.454H327.599V157.616H328.679C329.355 157.598 329.694 157.319 329.694 156.778ZM332.175 161V155.188H334.442C335.215 155.188 335.808 155.325 336.22 155.597C336.635 155.865 336.843 156.261 336.843 156.784C336.843 157.052 336.762 157.296 336.601 157.514C336.44 157.729 336.202 157.894 335.887 158.008C336.238 158.091 336.519 158.252 336.73 158.492C336.945 158.732 337.052 159.018 337.052 159.351C337.052 159.885 336.855 160.293 336.461 160.576C336.071 160.859 335.518 161 334.802 161H332.175ZM333.169 158.449V160.2H334.812C335.228 160.2 335.538 160.123 335.742 159.969C335.949 159.815 336.053 159.598 336.053 159.319C336.053 158.739 335.627 158.449 334.775 158.449H333.169ZM333.169 157.654H334.453C335.384 157.654 335.849 157.382 335.849 156.837C335.849 156.293 335.409 156.012 334.528 155.994H333.169V157.654ZM342.128 155.188H343.122V161H342.128V156.762L339.448 161H338.454V155.188H339.448V159.432L342.128 155.188ZM349.035 155.994H347.085V161H346.092V155.994H344.18V155.188H349.035V155.994ZM353.762 155.188H354.755V161H353.762V156.762L351.082 161H350.088V155.188H351.082V159.432L353.762 155.188ZM358.762 161.107C357.974 161.107 357.333 160.85 356.839 160.334C356.345 159.815 356.098 159.122 356.098 158.255V158.073C356.098 157.496 356.207 156.982 356.426 156.531C356.648 156.076 356.956 155.722 357.35 155.468C357.747 155.21 358.177 155.081 358.639 155.081C359.394 155.081 359.981 155.33 360.4 155.828C360.819 156.325 361.029 157.038 361.029 157.965V158.379H357.092C357.106 158.952 357.273 159.416 357.591 159.77C357.914 160.121 358.322 160.296 358.816 160.296C359.167 160.296 359.464 160.225 359.708 160.082C359.951 159.938 360.164 159.749 360.347 159.512L360.954 159.985C360.467 160.733 359.736 161.107 358.762 161.107ZM358.639 155.897C358.238 155.897 357.901 156.044 357.629 156.338C357.357 156.628 357.188 157.036 357.124 157.562H360.035V157.487C360.007 156.982 359.87 156.592 359.627 156.316C359.383 156.037 359.054 155.897 358.639 155.897Z" fill="#111259"/>
<path d="M270.92 229.28C270.92 228.864 270.768 228.535 270.463 228.292C270.163 228.044 269.738 227.921 269.19 227.921C268.732 227.921 268.347 228.048 268.036 228.302C267.728 228.553 267.574 228.864 267.574 229.237H266.542C266.542 228.821 266.655 228.449 266.881 228.12C267.11 227.79 267.429 227.534 267.837 227.352C268.245 227.165 268.696 227.072 269.19 227.072C270.064 227.072 270.743 227.269 271.226 227.663C271.709 228.053 271.951 228.598 271.951 229.296C271.951 229.658 271.84 229.987 271.618 230.284C271.396 230.581 271.086 230.816 270.689 230.988C271.609 231.296 272.069 231.906 272.069 232.819C272.069 233.521 271.808 234.078 271.285 234.49C270.762 234.902 270.064 235.107 269.19 235.107C268.671 235.107 268.199 235.016 267.772 234.833C267.35 234.647 267.021 234.384 266.784 234.044C266.548 233.704 266.43 233.299 266.43 232.83H267.461C267.461 233.242 267.624 233.586 267.95 233.861C268.276 234.133 268.689 234.27 269.19 234.27C269.753 234.27 270.2 234.139 270.533 233.877C270.87 233.616 271.038 233.271 271.038 232.841C271.038 231.924 270.471 231.457 269.335 231.439H268.369V230.59H269.33C269.853 230.58 270.249 230.461 270.517 230.236C270.786 230.01 270.92 229.692 270.92 229.28ZM273.235 234.189L273.579 233.765C273.965 233.263 274.186 232.511 274.239 231.509L274.331 229.188H278.074V234.189H278.821V236.708H277.827V235H273.772V236.708H272.778L272.784 234.189H273.235ZM274.411 234.189H277.081V230.107H275.292L275.233 231.493C275.172 232.649 274.898 233.548 274.411 234.189ZM279.659 232.041C279.659 231.471 279.77 230.959 279.992 230.504C280.217 230.05 280.529 229.699 280.926 229.452C281.327 229.205 281.784 229.081 282.296 229.081C283.087 229.081 283.726 229.355 284.213 229.903C284.704 230.451 284.949 231.179 284.949 232.089V232.159C284.949 232.724 284.84 233.233 284.622 233.684C284.407 234.132 284.097 234.481 283.692 234.731C283.291 234.982 282.829 235.107 282.307 235.107C281.519 235.107 280.88 234.833 280.389 234.286C279.902 233.738 279.659 233.013 279.659 232.11V232.041ZM280.658 232.159C280.658 232.803 280.806 233.321 281.104 233.711C281.404 234.101 281.805 234.296 282.307 234.296C282.812 234.296 283.213 234.099 283.51 233.706C283.807 233.308 283.956 232.753 283.956 232.041C283.956 231.403 283.803 230.888 283.499 230.494C283.198 230.096 282.797 229.897 282.296 229.897C281.805 229.897 281.41 230.093 281.109 230.483C280.808 230.873 280.658 231.432 280.658 232.159ZM291.104 232.159C291.104 233.043 290.902 233.756 290.498 234.296C290.093 234.837 289.545 235.107 288.854 235.107C288.149 235.107 287.594 234.884 287.189 234.436V237.234H286.195V229.188H287.103L287.151 229.833C287.556 229.332 288.118 229.081 288.838 229.081C289.536 229.081 290.088 229.344 290.492 229.871C290.9 230.397 291.104 231.129 291.104 232.067V232.159ZM290.111 232.046C290.111 231.391 289.971 230.873 289.692 230.494C289.413 230.114 289.029 229.924 288.542 229.924C287.941 229.924 287.49 230.191 287.189 230.725V233.501C287.486 234.031 287.941 234.296 288.553 234.296C289.029 234.296 289.407 234.108 289.687 233.732C289.969 233.353 290.111 232.791 290.111 232.046ZM292.109 232.041C292.109 231.471 292.22 230.959 292.442 230.504C292.667 230.05 292.979 229.699 293.376 229.452C293.778 229.205 294.234 229.081 294.746 229.081C295.537 229.081 296.177 229.355 296.664 229.903C297.154 230.451 297.399 231.179 297.399 232.089V232.159C297.399 232.724 297.29 233.233 297.072 233.684C296.857 234.132 296.547 234.481 296.143 234.731C295.742 234.982 295.28 235.107 294.757 235.107C293.969 235.107 293.33 234.833 292.839 234.286C292.352 233.738 292.109 233.013 292.109 232.11V232.041ZM293.108 232.159C293.108 232.803 293.257 233.321 293.554 233.711C293.854 234.101 294.256 234.296 294.757 234.296C295.262 234.296 295.663 234.099 295.96 233.706C296.257 233.308 296.406 232.753 296.406 232.041C296.406 231.403 296.254 230.888 295.949 230.494C295.648 230.096 295.247 229.897 294.746 229.897C294.256 229.897 293.86 230.093 293.559 230.483C293.258 230.873 293.108 231.432 293.108 232.159ZM298.737 235V229.188H301.003C301.777 229.188 302.369 229.325 302.781 229.597C303.197 229.865 303.404 230.261 303.404 230.784C303.404 231.052 303.324 231.296 303.163 231.514C303.001 231.729 302.763 231.894 302.448 232.008C302.799 232.091 303.08 232.252 303.292 232.492C303.506 232.732 303.614 233.018 303.614 233.351C303.614 233.885 303.417 234.293 303.023 234.576C302.633 234.859 302.079 235 301.363 235H298.737ZM299.73 232.449V234.2H301.374C301.789 234.2 302.099 234.123 302.303 233.969C302.511 233.815 302.615 233.598 302.615 233.319C302.615 232.739 302.189 232.449 301.336 232.449H299.73ZM299.73 231.654H301.014C301.945 231.654 302.411 231.382 302.411 230.837C302.411 230.293 301.97 230.012 301.089 229.994H299.73V231.654ZM306.015 231.192H307.524C308.183 231.199 308.704 231.371 309.087 231.708C309.47 232.044 309.662 232.501 309.662 233.077C309.662 233.657 309.465 234.123 309.071 234.474C308.677 234.825 308.147 235 307.481 235H305.021V229.188H306.015V231.192ZM306.015 232.003V234.189H307.492C307.864 234.189 308.152 234.094 308.356 233.904C308.561 233.711 308.663 233.448 308.663 233.115C308.663 232.792 308.562 232.529 308.362 232.325C308.165 232.118 307.887 232.01 307.529 232.003H306.015ZM313.314 235.107C312.526 235.107 311.885 234.85 311.391 234.334C310.897 233.815 310.65 233.122 310.65 232.255V232.073C310.65 231.496 310.759 230.982 310.978 230.531C311.2 230.076 311.507 229.722 311.901 229.468C312.299 229.21 312.729 229.081 313.19 229.081C313.946 229.081 314.533 229.33 314.952 229.828C315.371 230.325 315.581 231.038 315.581 231.965V232.379H311.644C311.658 232.952 311.824 233.416 312.143 233.77C312.465 234.121 312.874 234.296 313.368 234.296C313.719 234.296 314.016 234.225 314.259 234.082C314.503 233.938 314.716 233.749 314.898 233.512L315.505 233.985C315.018 234.733 314.288 235.107 313.314 235.107ZM313.19 229.897C312.789 229.897 312.453 230.044 312.181 230.338C311.909 230.628 311.74 231.036 311.676 231.562H314.587V231.487C314.558 230.982 314.422 230.592 314.179 230.316C313.935 230.037 313.606 229.897 313.19 229.897ZM316.703 236.558L316.139 236.171C316.476 235.702 316.651 235.218 316.666 234.721V233.824H317.638V234.603C317.638 234.964 317.548 235.326 317.369 235.688C317.194 236.049 316.972 236.339 316.703 236.558ZM266.843 251V245.188H269.11C269.883 245.188 270.476 245.325 270.888 245.597C271.303 245.865 271.511 246.261 271.511 246.784C271.511 247.052 271.43 247.296 271.269 247.514C271.108 247.729 270.87 247.894 270.555 248.008C270.906 248.091 271.187 248.252 271.398 248.492C271.613 248.732 271.72 249.018 271.72 249.351C271.72 249.885 271.523 250.293 271.129 250.576C270.739 250.859 270.186 251 269.47 251H266.843ZM267.837 248.449V250.2H269.48C269.896 250.2 270.206 250.123 270.41 249.969C270.617 249.815 270.721 249.598 270.721 249.319C270.721 248.739 270.295 248.449 269.443 248.449H267.837ZM267.837 247.654H269.121C270.052 247.654 270.517 247.382 270.517 246.837C270.517 246.293 270.077 246.012 269.196 245.994H267.837V247.654ZM277.784 251H276.791V248.519H274.121V251H273.122V245.188H274.121V247.708H276.791V245.188H277.784V251ZM281.796 251.107C281.009 251.107 280.368 250.85 279.874 250.334C279.379 249.815 279.132 249.122 279.132 248.255V248.073C279.132 247.496 279.242 246.982 279.46 246.531C279.682 246.076 279.99 245.722 280.384 245.468C280.781 245.21 281.211 245.081 281.673 245.081C282.428 245.081 283.016 245.33 283.435 245.828C283.854 246.325 284.063 247.038 284.063 247.965V248.379H280.126C280.14 248.952 280.307 249.416 280.625 249.77C280.948 250.121 281.356 250.296 281.85 250.296C282.201 250.296 282.498 250.225 282.742 250.082C282.985 249.938 283.198 249.749 283.381 249.512L283.988 249.985C283.501 250.733 282.77 251.107 281.796 251.107ZM281.673 245.897C281.272 245.897 280.935 246.044 280.663 246.338C280.391 246.628 280.223 247.036 280.158 247.562H283.069V247.487C283.041 246.982 282.905 246.592 282.661 246.316C282.418 246.037 282.088 245.897 281.673 245.897ZM286.303 245.188V250.189H288.43V245.188H289.423V250.189H291.545V245.188H292.544V251H285.304V245.188H286.303ZM298.86 251H297.867V248.519H295.197V251H294.198V245.188H295.197V247.708H297.867V245.188H298.86V251ZM300.198 248.041C300.198 247.471 300.309 246.959 300.531 246.504C300.756 246.05 301.068 245.699 301.465 245.452C301.866 245.205 302.323 245.081 302.835 245.081C303.626 245.081 304.265 245.355 304.752 245.903C305.243 246.451 305.488 247.179 305.488 248.089V248.159C305.488 248.724 305.379 249.233 305.161 249.684C304.946 250.132 304.636 250.481 304.231 250.731C303.83 250.982 303.368 251.107 302.846 251.107C302.058 251.107 301.419 250.833 300.928 250.286C300.441 249.738 300.198 249.013 300.198 248.11V248.041ZM301.197 248.159C301.197 248.803 301.345 249.321 301.643 249.711C301.943 250.101 302.344 250.296 302.846 250.296C303.351 250.296 303.752 250.099 304.049 249.706C304.346 249.308 304.495 248.753 304.495 248.041C304.495 247.403 304.342 246.888 304.038 246.494C303.737 246.096 303.336 245.897 302.835 245.897C302.344 245.897 301.949 246.093 301.648 246.483C301.347 246.873 301.197 247.432 301.197 248.159ZM309.065 250.296C309.42 250.296 309.73 250.189 309.995 249.974C310.26 249.759 310.406 249.491 310.435 249.168H311.375C311.357 249.501 311.243 249.818 311.031 250.119C310.82 250.42 310.537 250.66 310.183 250.839C309.832 251.018 309.459 251.107 309.065 251.107C308.274 251.107 307.644 250.844 307.175 250.318C306.709 249.788 306.477 249.065 306.477 248.148V247.981C306.477 247.416 306.58 246.913 306.788 246.472C306.996 246.032 307.293 245.69 307.68 245.446C308.07 245.203 308.53 245.081 309.06 245.081C309.712 245.081 310.252 245.276 310.682 245.667C311.115 246.057 311.346 246.563 311.375 247.187H310.435C310.406 246.811 310.263 246.503 310.005 246.263C309.751 246.019 309.436 245.897 309.06 245.897C308.555 245.897 308.163 246.08 307.884 246.445C307.608 246.807 307.47 247.332 307.47 248.019V248.207C307.47 248.877 307.608 249.392 307.884 249.754C308.16 250.116 308.553 250.296 309.065 250.296ZM316.811 245.994H314.861V251H313.867V245.994H311.955V245.188H316.811V245.994ZM318.862 247.192H320.372C321.03 247.199 321.551 247.371 321.935 247.708C322.318 248.044 322.509 248.501 322.509 249.077C322.509 249.657 322.312 250.123 321.918 250.474C321.525 250.825 320.995 251 320.329 251H317.869V245.188H318.862V247.192ZM318.862 248.003V250.189H320.339C320.712 250.189 321 250.094 321.204 249.904C321.408 249.711 321.51 249.448 321.51 249.115C321.51 248.792 321.41 248.529 321.209 248.325C321.013 248.118 320.735 248.01 320.377 248.003H318.862Z" fill="#111259"/>
<path d="M109.265 227.18V235H108.234V228.028H105.43L105.291 231.127C105.237 232.166 105.13 232.946 104.969 233.469C104.811 233.992 104.578 234.377 104.27 234.624C103.962 234.868 103.551 234.993 103.035 235H102.697V234.157L102.911 234.146C103.244 234.121 103.5 234.014 103.68 233.824C103.859 233.63 103.995 233.324 104.088 232.905C104.181 232.486 104.247 231.842 104.286 230.972L104.448 227.18H109.265ZM112.069 231.654H113.466C113.541 230.88 113.815 230.259 114.287 229.79C114.764 229.317 115.363 229.081 116.087 229.081C116.846 229.081 117.467 229.337 117.951 229.849C118.434 230.361 118.695 231.027 118.735 231.847L118.74 232.159C118.74 232.724 118.629 233.235 118.407 233.689C118.185 234.144 117.874 234.495 117.472 234.742C117.071 234.986 116.613 235.107 116.097 235.107C115.349 235.107 114.737 234.864 114.261 234.377C113.784 233.886 113.518 233.251 113.46 232.47H112.069V235H111.076V229.188H112.069V231.654ZM114.443 232.159C114.443 232.803 114.592 233.321 114.889 233.711C115.19 234.101 115.593 234.296 116.097 234.296C116.602 234.296 117.002 234.098 117.295 233.7C117.592 233.303 117.741 232.75 117.741 232.041C117.741 231.407 117.591 230.891 117.29 230.494C116.989 230.096 116.588 229.897 116.087 229.897C115.593 229.897 115.195 230.093 114.894 230.483C114.594 230.873 114.443 231.432 114.443 232.159ZM122.516 229.521C123.246 229.521 123.83 229.767 124.267 230.257C124.707 230.744 124.928 231.387 124.928 232.186V232.277C124.928 232.825 124.822 233.315 124.611 233.749C124.399 234.178 124.095 234.513 123.698 234.753C123.304 234.989 122.849 235.107 122.333 235.107C121.553 235.107 120.924 234.848 120.448 234.329C119.972 233.806 119.734 233.106 119.734 232.229V231.745C119.734 230.524 119.959 229.554 120.41 228.834C120.865 228.114 121.535 227.676 122.419 227.518C122.921 227.429 123.259 227.319 123.434 227.19C123.61 227.062 123.698 226.884 123.698 226.659H124.514C124.514 227.106 124.412 227.455 124.208 227.706C124.007 227.957 123.685 228.134 123.241 228.238L122.5 228.404C121.909 228.544 121.465 228.78 121.168 229.113C120.874 229.443 120.683 229.883 120.593 230.435C121.119 229.826 121.76 229.521 122.516 229.521ZM122.323 230.338C121.836 230.338 121.449 230.503 121.162 230.832C120.876 231.158 120.733 231.611 120.733 232.191V232.277C120.733 232.9 120.876 233.394 121.162 233.759C121.452 234.121 121.843 234.302 122.333 234.302C122.827 234.302 123.218 234.119 123.504 233.754C123.791 233.389 123.934 232.855 123.934 232.153C123.934 231.605 123.789 231.167 123.499 230.837C123.212 230.504 122.82 230.338 122.323 230.338ZM125.782 232.041C125.782 231.471 125.893 230.959 126.115 230.504C126.34 230.05 126.652 229.699 127.049 229.452C127.45 229.205 127.907 229.081 128.419 229.081C129.21 229.081 129.849 229.355 130.336 229.903C130.827 230.451 131.072 231.179 131.072 232.089V232.159C131.072 232.724 130.963 233.233 130.744 233.684C130.53 234.132 130.22 234.481 129.815 234.731C129.414 234.982 128.952 235.107 128.43 235.107C127.642 235.107 127.003 234.833 126.512 234.286C126.025 233.738 125.782 233.013 125.782 232.11V232.041ZM126.781 232.159C126.781 232.803 126.929 233.321 127.226 233.711C127.527 234.101 127.928 234.296 128.43 234.296C128.934 234.296 129.335 234.099 129.633 233.706C129.93 233.308 130.078 232.753 130.078 232.041C130.078 231.403 129.926 230.888 129.622 230.494C129.321 230.096 128.92 229.897 128.419 229.897C127.928 229.897 127.533 230.093 127.232 230.483C126.931 230.873 126.781 231.432 126.781 232.159ZM132.409 235V229.188H134.676C135.45 229.188 136.042 229.325 136.454 229.597C136.869 229.865 137.077 230.261 137.077 230.784C137.077 231.052 136.996 231.296 136.835 231.514C136.674 231.729 136.436 231.894 136.121 232.008C136.472 232.091 136.753 232.252 136.964 232.492C137.179 232.732 137.286 233.018 137.286 233.351C137.286 233.885 137.09 234.293 136.696 234.576C136.305 234.859 135.752 235 135.036 235H132.409ZM133.403 232.449V234.2H135.047C135.462 234.2 135.772 234.123 135.976 233.969C136.184 233.815 136.287 233.598 136.287 233.319C136.287 232.739 135.861 232.449 135.009 232.449H133.403ZM133.403 231.654H134.687C135.618 231.654 136.083 231.382 136.083 230.837C136.083 230.293 135.643 230.012 134.762 229.994H133.403V231.654ZM139.687 231.192H141.197C141.855 231.199 142.376 231.371 142.76 231.708C143.143 232.044 143.334 232.501 143.334 233.077C143.334 233.657 143.137 234.123 142.743 234.474C142.35 234.825 141.82 235 141.154 235H138.694V229.188H139.687V231.192ZM139.687 232.003V234.189H141.164C141.537 234.189 141.825 234.094 142.029 233.904C142.233 233.711 142.335 233.448 142.335 233.115C142.335 232.792 142.235 232.529 142.034 232.325C141.838 232.118 141.56 232.01 141.202 232.003H139.687ZM144.543 236.558L143.979 236.171C144.315 235.702 144.491 235.218 144.505 234.721V233.824H145.477V234.603C145.477 234.964 145.388 235.326 145.209 235.688C145.033 236.049 144.811 236.339 144.543 236.558ZM117.301 250.296C117.655 250.296 117.965 250.189 118.23 249.974C118.495 249.759 118.642 249.491 118.67 249.168H119.61C119.592 249.501 119.478 249.818 119.266 250.119C119.055 250.42 118.772 250.66 118.418 250.839C118.067 251.018 117.694 251.107 117.301 251.107C116.509 251.107 115.879 250.844 115.41 250.318C114.944 249.788 114.712 249.065 114.712 248.148V247.981C114.712 247.416 114.816 246.913 115.023 246.472C115.231 246.032 115.528 245.69 115.915 245.446C116.305 245.203 116.765 245.081 117.295 245.081C117.947 245.081 118.488 245.276 118.917 245.667C119.351 246.057 119.582 246.563 119.61 247.187H118.67C118.642 246.811 118.498 246.503 118.241 246.263C117.986 246.019 117.671 245.897 117.295 245.897C116.79 245.897 116.398 246.08 116.119 246.445C115.843 246.807 115.705 247.332 115.705 248.019V248.207C115.705 248.877 115.843 249.392 116.119 249.754C116.395 250.116 116.789 250.296 117.301 250.296ZM123.139 251.107C122.351 251.107 121.71 250.85 121.216 250.334C120.722 249.815 120.475 249.122 120.475 248.255V248.073C120.475 247.496 120.584 246.982 120.803 246.531C121.025 246.076 121.333 245.722 121.726 245.468C122.124 245.21 122.554 245.081 123.015 245.081C123.771 245.081 124.358 245.33 124.777 245.828C125.196 246.325 125.406 247.038 125.406 247.965V248.379H121.469C121.483 248.952 121.649 249.416 121.968 249.77C122.29 250.121 122.699 250.296 123.193 250.296C123.544 250.296 123.841 250.225 124.084 250.082C124.328 249.938 124.541 249.749 124.723 249.512L125.33 249.985C124.843 250.733 124.113 251.107 123.139 251.107ZM123.015 245.897C122.614 245.897 122.278 246.044 122.006 246.338C121.734 246.628 121.565 247.036 121.501 247.562H124.412V247.487C124.383 246.982 124.247 246.592 124.004 246.316C123.76 246.037 123.431 245.897 123.015 245.897ZM129.907 249.684L131.883 245.188H133.124V251H132.13V246.773L130.25 251H129.563L127.645 246.682V251H126.652V245.188H127.941L129.907 249.684ZM135.809 247.192H137.319C137.978 247.199 138.499 247.371 138.882 247.708C139.265 248.044 139.456 248.501 139.456 249.077C139.456 249.657 139.259 250.123 138.866 250.474C138.472 250.825 137.942 251 137.276 251H134.816V245.188H135.809V247.192ZM135.809 248.003V250.189H137.286C137.659 250.189 137.947 250.094 138.151 249.904C138.355 249.711 138.457 249.448 138.457 249.115C138.457 248.792 138.357 248.529 138.157 248.325C137.96 248.118 137.682 248.01 137.324 248.003H135.809ZM145.139 245.188V251H144.14V248.739H142.641L141.272 251H140.198L141.659 248.588C141.286 248.452 141 248.243 140.799 247.96C140.602 247.674 140.504 247.34 140.504 246.961C140.504 246.431 140.702 246.005 141.1 245.683C141.497 245.357 142.029 245.192 142.695 245.188H145.139ZM141.503 246.972C141.503 247.255 141.599 247.484 141.793 247.659C141.986 247.831 142.242 247.919 142.561 247.922H144.14V245.994H142.711C142.342 245.994 142.049 246.085 141.83 246.268C141.612 246.447 141.503 246.682 141.503 246.972Z" fill="#111259"/>
<path d="M103.015 150.342C103.015 151.109 102.886 151.778 102.628 152.351C102.37 152.92 102.005 153.355 101.532 153.656C101.06 153.957 100.508 154.107 99.8781 154.107C99.2623 154.107 98.7162 153.957 98.24 153.656C97.7637 153.352 97.3931 152.92 97.1281 152.362C96.8668 151.8 96.7325 151.15 96.7253 150.412V149.848C96.7253 149.096 96.856 148.432 97.1174 147.855C97.3788 147.279 97.7476 146.839 98.2239 146.534C98.7037 146.226 99.2515 146.072 99.8674 146.072C100.494 146.072 101.045 146.224 101.522 146.529C102.002 146.83 102.37 147.268 102.628 147.845C102.886 148.418 103.015 149.085 103.015 149.848V150.342ZM101.989 149.837C101.989 148.91 101.803 148.199 101.43 147.705C101.058 147.207 100.537 146.958 99.8674 146.958C99.2157 146.958 98.7019 147.207 98.3259 147.705C97.9535 148.199 97.7619 148.887 97.7512 149.768V150.342C97.7512 151.241 97.9392 151.948 98.3152 152.464C98.6947 152.976 99.2157 153.232 99.8781 153.232C100.544 153.232 101.06 152.99 101.425 152.507C101.79 152.02 101.978 151.323 101.989 150.417V149.837ZM108.724 148.994H106.775V154H105.781V148.994H103.869V148.188H108.724V148.994ZM109.181 153.189L109.525 152.765C109.911 152.263 110.132 151.511 110.185 150.509L110.277 148.188H114.02V153.189H114.767V155.708H113.773V154H109.718V155.708H108.724L108.73 153.189H109.181ZM110.357 153.189H113.027V149.107H111.238L111.179 150.493C111.118 151.649 110.844 152.548 110.357 153.189ZM116.953 150.192H118.462C119.121 150.199 119.642 150.371 120.025 150.708C120.408 151.044 120.6 151.501 120.6 152.077C120.6 152.657 120.403 153.123 120.009 153.474C119.615 153.825 119.085 154 118.419 154H115.959V148.188H116.953V150.192ZM122.673 154H121.674V148.188H122.673V154ZM116.953 151.003V153.189H118.43C118.802 153.189 119.091 153.094 119.295 152.904C119.499 152.711 119.601 152.448 119.601 152.115C119.601 151.792 119.501 151.529 119.3 151.325C119.103 151.118 118.826 151.01 118.468 151.003H116.953ZM126.358 150.31L127.647 148.188H128.807L126.905 151.062L128.866 154H127.717L126.374 151.825L125.031 154H123.876L125.837 151.062L123.935 148.188H125.085L126.358 150.31ZM129.833 155.558L129.269 155.171C129.605 154.702 129.781 154.218 129.795 153.721V152.824H130.767V153.603C130.767 153.964 130.678 154.326 130.499 154.688C130.323 155.049 130.101 155.339 129.833 155.558ZM79.6882 168.544L81.0417 164.188H82.1052L79.7688 170.897C79.4071 171.864 78.8324 172.347 78.0447 172.347L77.8567 172.331L77.4861 172.261V171.456L77.7546 171.477C78.0912 171.477 78.3526 171.409 78.5388 171.273C78.7286 171.137 78.8843 170.888 79.0061 170.526L79.2263 169.936L77.153 164.188H78.238L79.6882 168.544ZM83.0881 170V164.188H85.3547C86.1281 164.188 86.7208 164.325 87.1325 164.597C87.5479 164.865 87.7556 165.261 87.7556 165.784C87.7556 166.052 87.675 166.296 87.5139 166.514C87.3528 166.729 87.1146 166.894 86.7995 167.008C87.1504 167.091 87.4315 167.252 87.6428 167.492C87.8576 167.732 87.9651 168.018 87.9651 168.351C87.9651 168.885 87.7681 169.293 87.3742 169.576C86.9839 169.859 86.4307 170 85.7146 170H83.0881ZM84.0818 167.449V169.2H85.7253C86.1407 169.2 86.4504 169.123 86.6545 168.969C86.8622 168.815 86.966 168.598 86.966 168.319C86.966 167.739 86.5399 167.449 85.6877 167.449H84.0818ZM84.0818 166.654H85.3655C86.2964 166.654 86.7619 166.382 86.7619 165.837C86.7619 165.293 86.3215 165.012 85.4406 164.994H84.0818V166.654ZM94.0451 164.188V170H93.0461V165.01H91.0696L90.9514 167.186C90.8869 168.185 90.7186 168.899 90.4465 169.329C90.178 169.758 89.7501 169.982 89.1628 170H88.7654V169.125L89.05 169.103C89.3723 169.067 89.6032 168.881 89.7429 168.544C89.8825 168.208 89.9721 167.585 90.0114 166.675L90.1189 164.188H94.0451ZM98.052 170.107C97.2642 170.107 96.6233 169.85 96.1291 169.334C95.635 168.815 95.3879 168.122 95.3879 167.255V167.073C95.3879 166.496 95.4971 165.982 95.7155 165.531C95.9376 165.076 96.2455 164.722 96.6394 164.468C97.0368 164.21 97.4665 164.081 97.9284 164.081C98.684 164.081 99.2712 164.33 99.6902 164.828C100.109 165.325 100.319 166.038 100.319 166.965V167.379H96.3816C96.3959 167.952 96.5624 168.416 96.8811 168.77C97.2033 169.121 97.6115 169.296 98.1057 169.296C98.4566 169.296 98.7538 169.225 98.9973 169.082C99.2408 168.938 99.4538 168.749 99.6364 168.512L100.243 168.985C99.7564 169.733 99.0259 170.107 98.052 170.107ZM97.9284 164.897C97.5274 164.897 97.1908 165.044 96.9187 165.338C96.6465 165.628 96.4782 166.036 96.4138 166.562H99.3249V166.487C99.2963 165.982 99.1602 165.592 98.9167 165.316C98.6732 165.037 98.3438 164.897 97.9284 164.897ZM105.862 170H104.863V167.895C104.426 168.009 103.978 168.066 103.52 168.066C102.793 168.066 102.238 167.88 101.855 167.508C101.475 167.135 101.282 166.605 101.275 165.918V164.183H102.268V165.95C102.286 166.817 102.703 167.25 103.52 167.25C103.978 167.25 104.426 167.193 104.863 167.078V164.188H105.862V170ZM109.868 170.107C109.081 170.107 108.44 169.85 107.946 169.334C107.451 168.815 107.204 168.122 107.204 167.255V167.073C107.204 166.496 107.314 165.982 107.532 165.531C107.754 165.076 108.062 164.722 108.456 164.468C108.853 164.21 109.283 164.081 109.745 164.081C110.5 164.081 111.088 164.33 111.507 164.828C111.926 165.325 112.135 166.038 112.135 166.965V167.379H108.198C108.212 167.952 108.379 168.416 108.697 168.77C109.02 169.121 109.428 169.296 109.922 169.296C110.273 169.296 110.57 169.225 110.814 169.082C111.057 168.938 111.27 168.749 111.453 168.512L112.06 168.985C111.573 169.733 110.842 170.107 109.868 170.107ZM109.745 164.897C109.344 164.897 109.007 165.044 108.735 165.338C108.463 165.628 108.295 166.036 108.23 166.562H111.141V166.487C111.113 165.982 110.977 165.592 110.733 165.316C110.49 165.037 110.16 164.897 109.745 164.897ZM118.038 170H117.044V167.519H114.375V170H113.376V164.188H114.375V166.708H117.044V164.188H118.038V170ZM123.398 164.188H124.392V170H123.398V165.762L120.718 170H119.724V164.188H120.718V168.432L123.398 164.188ZM130.429 164.188V170H129.43V167.739H127.931L126.562 170H125.488L126.948 167.588C126.576 167.452 126.29 167.243 126.089 166.96C125.892 166.674 125.794 166.34 125.794 165.961C125.794 165.431 125.992 165.005 126.39 164.683C126.787 164.357 127.319 164.192 127.985 164.188H130.429ZM126.793 165.972C126.793 166.255 126.889 166.484 127.083 166.659C127.276 166.831 127.532 166.919 127.851 166.922H129.43V164.994H128.001C127.632 164.994 127.339 165.085 127.12 165.268C126.902 165.447 126.793 165.682 126.793 165.972Z" fill="#111259"/>
<path fill-rule="evenodd" clip-rule="evenodd" d="M175.594 66.9233V68.9021C175.167 68.6408 174.684 68.449 174.162 68.3461C172.885 68.1338 171.631 68.4682 170.689 69.2455L170.529 69.3846C169.802 70.0498 169.35 70.9428 169.248 71.8975L169.241 71.9713L163.885 71.9714C162.263 71.9714 160.969 73.2356 160.969 74.7716V79.0787C160.969 80.6148 162.263 81.879 163.885 81.879H164.515C164.632 81.879 164.748 81.9922 164.748 82.1552C164.748 82.3183 164.632 82.4315 164.515 82.4315H163.885C162.666 82.4315 161.633 83.1452 161.194 84.1517H157.26C156.564 84.1517 156 83.6007 156 82.9211V77.3834C156 76.7038 156.564 76.1528 157.26 76.1528H157.89C158.933 76.1528 159.779 75.3264 159.779 74.3069C159.779 73.2875 158.933 72.461 157.89 72.461H157.26C156.564 72.461 156 71.9101 156 71.2304V66.9233C156 66.2437 156.564 65.6927 157.26 65.6927H164.257V64.4621C164.257 63.7371 164.584 63.049 165.151 62.5812C165.718 62.1134 166.468 61.9135 167.199 62.0347C168.441 62.279 169.324 63.3573 169.296 64.5938V65.6927H174.335C175.03 65.6927 175.594 66.2437 175.594 66.9233ZM177.557 71.961L177.59 71.9713L177.558 71.9713L177.557 71.961ZM182.22 79.694H183.345C184.61 79.6665 185.714 80.5294 185.965 81.7418C186.089 82.4567 185.884 83.1886 185.405 83.7426C184.926 84.2965 184.222 84.6162 183.48 84.6164H182.22V90.7694C182.22 91.449 181.656 92 180.96 92H176.551C175.855 92 175.291 91.449 175.291 90.7694V90.1541C175.291 89.1346 174.445 88.3082 173.402 88.3082C172.358 88.3082 171.512 89.1346 171.512 90.1541V90.7694C171.512 91.449 170.948 92 170.252 92H163.885C163.189 92 162.625 91.449 162.625 90.7694V85.2317C162.625 84.5521 163.189 84.0011 163.885 84.0011H164.515C165.559 84.0011 166.405 83.1747 166.405 82.1552C166.405 81.1358 165.559 80.3093 164.515 80.3093H163.885C163.189 80.3093 162.625 79.7584 162.625 79.0787V74.7716C162.625 74.092 163.189 73.541 163.885 73.541H170.882V72.3104C170.882 71.5854 171.21 70.8973 171.777 70.4295C172.344 69.9617 173.093 69.7618 173.825 69.883C175.066 70.1273 175.949 71.2056 175.921 72.4421V73.541H180.96C181.656 73.541 182.22 74.092 182.22 74.7716V79.694Z" fill="#0000FE"/>
<path fill-rule="evenodd" clip-rule="evenodd" d="M155.982 234.311C155.982 229.721 159.564 226 163.982 226C166.994 226 169.617 227.729 170.982 230.284C172.347 227.729 174.97 226 177.982 226C182.4 226 185.982 229.721 185.982 234.311C185.982 240.314 181.344 246.432 172.069 252.667L172.069 252.667C171.408 253.111 170.557 253.111 169.896 252.667C160.62 246.432 155.982 240.314 155.982 234.311Z" fill="#0000FE"/>
<path fill-rule="evenodd" clip-rule="evenodd" d="M253.385 145.296C253.931 143.951 255.254 143 256.804 143C258.791 143 260.411 144.561 260.488 146.516C260.49 146.559 260.492 169.523 260.492 169.523C260.492 169.776 260.444 170.047 260.378 170.272C259.922 171.844 258.527 173 256.804 173C255.485 173 254.329 172.313 253.677 171.28C251.295 171.1 249.401 169.183 249.28 166.802C248.024 165.949 247.2 164.515 247.2 162.89C247.2 162.484 247.252 162.089 247.349 161.713C247.782 161.944 248.257 162.104 248.757 162.182C248.987 162.218 249.217 162.235 249.445 162.235C250.162 162.235 250.86 162.057 251.493 161.721C251.732 162.018 252.023 162.274 252.359 162.477C252.892 162.799 253.488 162.96 254.084 162.96C254.685 162.96 255.287 162.796 255.823 162.469C256.051 162.329 256.122 162.033 255.981 161.807C255.841 161.582 255.543 161.511 255.315 161.65C254.56 162.112 253.62 162.115 252.863 161.657C252.329 161.333 251.953 160.822 251.806 160.218C251.658 159.614 251.756 158.989 252.082 158.458C252.222 158.231 252.149 157.935 251.921 157.797C251.693 157.659 251.395 157.731 251.256 157.958C250.795 158.708 250.656 159.591 250.865 160.445C250.902 160.599 250.951 160.748 251.009 160.893C250.366 161.225 249.636 161.345 248.907 161.232C248.004 161.092 247.059 160.407 246.539 159.681C245.553 158.303 245.962 156.189 247.421 155.132L247.415 155.125L247.416 155.125C247.275 154.678 247.2 154.203 247.2 153.711C247.2 152.096 248.014 150.67 249.258 149.816C248.952 149.111 249.21 147.707 250.234 146.882C250.83 146.402 251.585 146.137 252.368 146.137C254.029 146.137 255.449 147.342 255.734 148.934C254.918 149.374 254.303 150.071 253.948 150.88C251.862 150.951 250.136 152.602 250.026 154.71C250.012 154.975 250.217 155.201 250.484 155.215C250.493 155.215 250.501 155.215 250.51 155.215C250.765 155.215 250.979 155.016 250.993 154.759C251.071 153.264 252.218 152.071 253.656 151.868C253.543 152.566 253.611 153.3 253.892 153.996C253.968 154.184 254.149 154.298 254.341 154.298C254.401 154.298 254.462 154.287 254.521 154.263C254.769 154.165 254.89 153.885 254.79 153.638C254.168 152.097 254.912 150.311 256.449 149.657C256.64 149.576 256.757 149.383 256.741 149.177C256.588 147.278 255.188 145.727 253.385 145.296ZM255.37 169.284C256.224 169.284 257.051 168.938 257.657 168.298C257.84 168.104 257.83 167.8 257.636 167.618C257.441 167.436 257.135 167.445 256.952 167.639C256.388 168.235 255.546 168.463 254.756 168.234C253.604 167.901 252.94 166.699 253.275 165.556C253.35 165.301 253.203 165.034 252.946 164.96C252.689 164.886 252.421 165.032 252.346 165.287C252.111 166.088 252.204 166.931 252.608 167.662C253.012 168.393 253.678 168.924 254.485 169.158C254.778 169.243 255.076 169.284 255.37 169.284ZM272.598 162.235C271.882 162.235 271.183 162.057 270.55 161.721C270.312 162.018 270.02 162.274 269.684 162.477C269.152 162.799 268.556 162.96 267.96 162.96C267.358 162.96 266.757 162.796 266.221 162.469C265.993 162.329 265.922 162.033 266.062 161.807C266.203 161.581 266.501 161.511 266.728 161.65C267.484 162.112 268.423 162.115 269.18 161.657C269.715 161.333 270.09 160.822 270.238 160.218C270.386 159.614 270.287 158.989 269.961 158.458C269.822 158.231 269.894 157.935 270.122 157.797C270.351 157.659 270.649 157.731 270.788 157.958C271.248 158.708 271.387 159.591 271.179 160.445C271.141 160.599 271.093 160.748 271.035 160.893C271.677 161.225 272.407 161.345 273.137 161.232C274.039 161.092 274.835 160.613 275.371 159.878C276.361 158.52 276.233 156.339 274.623 155.133L274.628 155.126L274.627 155.125C274.767 154.678 274.844 154.204 274.844 153.711C274.844 152.096 274.029 150.671 272.786 149.816C273.013 149.111 272.786 147.621 271.782 146.855C271.186 146.399 270.451 146.137 269.682 146.137C268.021 146.137 266.602 147.342 266.316 148.935C267.133 149.374 267.748 150.071 268.102 150.88C270.189 150.951 271.915 152.602 272.024 154.71C272.038 154.975 271.833 155.201 271.566 155.215C271.558 155.215 271.549 155.215 271.541 155.215C271.285 155.215 271.071 155.016 271.058 154.76C270.979 153.264 269.835 152.069 268.394 151.868C268.507 152.566 268.439 153.3 268.158 153.996C268.082 154.184 267.901 154.298 267.709 154.298C267.649 154.298 267.588 154.287 267.529 154.264C267.281 154.165 267.16 153.885 267.26 153.639C267.882 152.097 267.138 150.311 265.601 149.658C265.41 149.576 265.293 149.383 265.309 149.178C265.464 147.255 266.897 145.69 268.733 145.281C268.183 143.944 266.864 143 265.32 143C263.496 143 262.047 144.302 261.672 146.015C261.631 146.207 261.607 146.435 261.607 146.645V169.523C261.607 169.825 261.676 170.142 261.766 170.403C262.282 171.903 263.628 173 265.305 173C266.626 173 267.783 172.31 268.435 171.274C270.785 171.063 272.644 169.16 272.764 166.801C274.02 165.948 274.844 164.515 274.844 162.89C274.844 162.483 274.792 162.089 274.694 161.712C274.261 161.944 273.787 162.104 273.287 162.182C273.056 162.218 272.827 162.235 272.598 162.235ZM267.559 169.158C268.365 168.925 269.032 168.393 269.436 167.663C269.84 166.931 269.933 166.088 269.698 165.288C269.623 165.033 269.355 164.886 269.098 164.961C268.842 165.035 268.694 165.302 268.769 165.557C268.931 166.111 268.867 166.694 268.587 167.2C268.307 167.706 267.846 168.074 267.288 168.235C266.498 168.463 265.657 168.236 265.092 167.64C264.909 167.446 264.603 167.437 264.408 167.619C264.213 167.8 264.204 168.105 264.387 168.298C264.993 168.938 265.82 169.284 266.673 169.284C266.968 169.284 267.266 169.243 267.559 169.158Z" fill="#0000FE"/>
<path fill-rule="evenodd" clip-rule="evenodd" d="M253.253 67.5486H247.442V65.8182C247.442 63.1473 245.611 62 243.368 62H238.632C236.389 62 234.558 63.1473 234.558 65.8182V67.5486H228.716C227.2 67.5486 226 69.0157 226 70.7837V75.1097C226 75.674 226.379 76.1254 226.853 76.1254H238.263V75.3354C238.263 74.9592 238.516 74.6583 238.832 74.6583H243.168C243.484 74.6583 243.737 74.9592 243.737 75.3354V76.1254H255.147C255.621 76.1254 256 75.674 256 75.1097V70.8213C256 69.0157 254.768 67.5486 253.253 67.5486ZM237.589 65.8182C237.589 65.1411 238.063 64.5768 238.632 64.5768H243.368C243.937 64.5768 244.411 65.1411 244.411 65.8182V67.5486H237.589V65.8182ZM243.705 78.0063H253.947C254.421 78.0063 254.8 78.4577 254.8 79.0219V88.7273C254.8 90.5329 253.568 92 252.053 92H229.916C228.432 92 227.2 90.5705 227.2 88.7649V79.0219C227.2 78.4577 227.579 78.0063 228.053 78.0063H238.326C238.421 78.9843 240.116 79.7743 241 79.7743C241.884 79.7743 243.611 79.0219 243.705 78.0063Z" fill="#0000FE"/>
<path fill-rule="evenodd" clip-rule="evenodd" d="M145.087 143H167.457C169.569 143 171.272 145.044 171.272 147.578V168.422C171.272 170.956 169.569 173 167.457 173H145.087C142.976 173 141.272 170.956 141.272 168.422V147.578C141.272 145.044 142.976 143 145.087 143ZM157.383 146H155.161V148.222H157.383V146ZM146.494 170.222H144.272V168H146.494V170.222ZM144.235 148.222H146.457V146H144.235V148.222ZM151.976 170.222H149.754V168H151.976V170.222ZM149.717 148.222H151.939V146H149.717V148.222ZM157.42 170.222H155.198V168H157.42V170.222ZM153.441 163.803L161.498 159.275C162.53 158.71 162.53 157.269 161.498 156.703L153.441 152.176C152.46 151.662 151.272 152.33 151.272 153.462V162.517C151.272 163.648 152.46 164.369 153.441 163.803ZM162.865 170.222H160.643V168H162.865V170.222ZM160.606 148.222H162.828V146H160.606V148.222ZM168.309 170.222H166.087V168H168.309V170.222ZM166.05 148.222H168.272V146H166.05V148.222Z" fill="#0000FE"/>
<path fill-rule="evenodd" clip-rule="evenodd" d="M226 233C226 231.895 226.895 231 228 231H232.889C233.993 231 234.889 231.895 234.889 233V235.923H247.111V233C247.111 231.895 248.007 231 249.111 231H254C255.105 231 256 231.895 256 233V245C256 246.105 255.105 247 254 247H249.111C248.007 247 247.111 246.105 247.111 245V242.077H234.889V245C234.889 246.105 233.993 247 232.889 247H228C226.895 247 226 246.105 226 245V233Z" fill="#0000FE"/>
</svg>
