<svg width="143" height="100" viewBox="0 0 143 100" fill="none" xmlns="http://www.w3.org/2000/svg">
<g id="gamepad">
<path id="Combined Shape" fill-rule="evenodd" clip-rule="evenodd" d="M118.687 3.49376V6.71272H101.482V3.49376C101.482 1.88112 102.788 0.574219 104.401 0.574219H115.767C117.38 0.574219 118.687 1.88112 118.687 3.49376ZM26.2304 0.575023H37.5976C39.2097 0.575023 40.5166 1.88192 40.5166 3.49399V6.7118H23.3114V3.49399C23.3114 1.88192 24.6189 0.575023 26.2304 0.575023ZM74.2727 4.30112H75.5177C76.647 4.30112 77.6619 4.98732 78.0826 6.03502L79.4993 9.56089H62.2389L63.655 6.03502C64.0757 4.98732 65.0912 4.30112 66.22 4.30112H67.4653V3.44146C67.4653 2.37249 68.3319 1.5064 69.4003 1.5064H72.3377C73.4061 1.5064 74.2727 2.37249 74.2727 3.44146V4.30112Z" fill="#130F5B"/>
<path id="Fill 8" fill-rule="evenodd" clip-rule="evenodd" d="M139.736 88.5823C139.709 88.661 139.682 88.7398 139.655 88.8202C138.102 93.4593 135.682 97.0329 132.03 98.7065C130.953 99.0996 129.893 99.3737 128.852 99.5381C118.373 101.202 109.771 91.7593 103.621 81.0507C99.7896 74.3743 96.9075 67.2099 95.1178 61.9312C93.3626 65.2743 89.9431 67.6105 85.9586 67.8329C85.7511 67.8438 85.5425 67.8507 85.3322 67.8507C79.2293 67.8507 74.281 62.9024 74.281 56.799V56.7938C74.281 56.5294 74.0707 56.3128 73.8057 56.3128H68.3339C68.0689 56.3128 67.8586 56.5294 67.8586 56.7938V56.799C67.8586 59.1794 67.1075 61.3835 65.827 63.1869C63.8247 66.0093 60.5304 67.8507 56.8075 67.8507C52.5563 67.8507 48.8695 65.449 47.0218 61.9312C46.535 63.3662 45.9667 64.9444 45.3207 66.6122C45.1856 66.961 45.046 67.3128 44.9046 67.6697C43.1115 72.1754 40.777 77.253 37.9511 82.0168C32.4431 91.3139 25.0684 99.4116 16.2138 99.7208C14.2506 99.7898 12.2144 99.4754 10.1103 98.7065C-2.56381 92.8973 -0.397139 64.203 1.30573 47.5231C1.47355 45.8794 1.66608 44.2651 1.87757 42.6955C2.41033 38.7565 3.06321 35.1059 3.74884 32.0156C4.57355 28.2886 5.44367 25.3794 6.19654 23.7668C8.64079 18.5312 12.7057 14.2047 17.7471 11.4335V9.98174C17.7471 7.10185 20.0816 4.76794 22.9626 4.76794H42.1098C43.6339 4.76794 44.8684 6.00243 44.8684 7.52599V8.09151H97.2712V7.52599C97.2712 6.00243 98.5057 4.76794 100.029 4.76794H119.178C122.058 4.76794 124.393 7.10185 124.393 9.98174V11.4335C124.829 11.6731 125.259 11.9248 125.681 12.1898C130.128 14.9628 133.713 18.9852 135.945 23.7668C136.225 24.3651 136.518 25.1427 136.823 26.0731C137.385 27.7955 137.972 30.0496 138.536 32.6748C139.251 36.0133 139.926 39.9536 140.454 44.1748C140.49 44.4674 140.526 44.7599 140.561 45.0559V45.0622C140.657 45.8743 140.75 46.6944 140.834 47.5231C142.037 59.3156 143.474 77.1116 139.736 88.5823Z" fill="#3615F2"/>
<path id="Fill 11" fill-rule="evenodd" clip-rule="evenodd" d="M140.561 45.0558V45.0627C138.011 52.8638 132.101 59.7741 126.104 62.1632C113.174 67.3132 97.9899 61.7241 96.321 56.9029C96.321 56.9029 113.486 63.8299 127.2 52.6287C137.734 44.0264 138.736 33.6695 136.823 26.073C138.099 29.9902 139.512 36.6345 140.454 44.1747C140.49 44.4673 140.526 44.7598 140.561 45.0558Z" fill="#3261F7"/>
<path id="Fill 13" fill-rule="evenodd" clip-rule="evenodd" d="M139.736 88.5824C139.709 88.6611 139.682 88.7399 139.655 88.8203C138.098 93.3295 135.701 96.7996 132.118 98.4416C131.041 98.8347 129.981 99.1088 128.941 99.2738C132.067 85.6468 129.979 71.8594 128.441 64.7962C128.221 64.9445 128.001 65.0887 127.772 65.2318C114.65 73.433 102.071 69.46 97.3236 67.4048C96.5017 65.3433 95.7954 63.4025 95.2069 61.6663C95.2069 61.6663 96.2385 59.4916 96.3213 56.9025C99.2799 60.3008 117.252 64.683 129.307 54.2726C137.87 46.8772 138.748 37.491 138.536 32.6749C139.251 36.0134 139.926 39.9537 140.454 44.1749C140.49 44.4675 140.526 44.76 140.561 45.056V45.0623C140.657 45.8744 140.75 46.6945 140.834 47.5232C142.037 59.3157 143.474 77.1117 139.736 88.5824Z" fill="#130F5B"/>
<path id="Fill 18" fill-rule="evenodd" clip-rule="evenodd" d="M131.369 33.9547C131.369 45.2725 122.195 54.4466 110.878 54.4466C105.405 54.4466 100.435 52.3012 96.7588 48.8064C92.8318 45.0736 90.3846 39.8001 90.3846 33.9547C90.3846 22.6374 99.5599 13.4615 110.878 13.4615C115.089 13.4615 119.001 14.7322 122.256 16.9098C127.751 20.584 131.369 26.8466 131.369 33.9547Z" fill="#3261F7"/>
<path id="Fill 30" fill-rule="evenodd" clip-rule="evenodd" d="M50.8173 33.9996C50.8173 45.3174 41.6432 54.4915 30.3254 54.4915C24.2208 54.4915 18.7386 51.822 14.9857 47.5875C11.78 43.9708 9.83228 39.2139 9.83228 33.9996C9.83228 22.6823 19.0081 13.5065 30.3254 13.5065C35.5397 13.5065 40.2966 15.4542 43.9133 18.6599C48.1478 22.4122 50.8173 27.8944 50.8173 33.9996Z" fill="#3261F7"/>
<path id="Fill 36" fill-rule="evenodd" clip-rule="evenodd" d="M42.5578 29.6428L41.8894 30.3405H37.5486C37.0096 30.3405 36.4969 30.5773 36.1481 30.9899L33.7498 33.825C33.6032 33.998 33.5245 34.2066 33.5147 34.4204C33.5015 34.6652 33.5802 34.9152 33.7498 35.1158L35.3935 37.1221L36.3871 38.1825C36.7124 38.4491 37.1216 38.6003 37.5486 38.6003H42.6561C43.4107 38.6003 44.0234 37.9876 44.0234 37.2313V31.7083C44.0234 30.8756 42.5578 29.6428 42.5578 29.6428Z" fill="#3615F2"/>
<path id="Fill 38" fill-rule="evenodd" clip-rule="evenodd" d="M34.9277 39.0291L32.092 36.6291C31.9145 36.4791 31.6943 36.4004 31.4759 36.3958C31.2374 36.3872 30.9961 36.4665 30.8018 36.6291L27.9662 39.0291C27.5553 39.3774 27.3185 39.8889 27.3185 40.428V44.7464L26.5714 45.5055L27.4208 46.5193C27.6662 46.8843 28.2127 47.1142 28.6863 47.1142H34.2093C34.9656 47.1142 35.5771 46.5021 35.5771 45.7464V40.428C35.5771 39.8889 35.3403 39.3774 34.9277 39.0291Z" fill="#3615F2"/>
<path id="Fill 40" fill-rule="evenodd" clip-rule="evenodd" d="M28.8447 33.7021L26.4447 30.8665C26.0982 30.4538 25.5849 30.2176 25.0459 30.2176H24.6286L25.0924 29.5337L24.4085 30.2176H19.9384C19.1826 30.2176 18.5711 30.8302 18.5711 31.5848V36.055L17.9142 36.7113L18.3775 37.4389C18.7884 38.0854 19.5016 38.4774 20.2683 38.4774H25.0459C25.5849 38.4774 26.0982 38.2394 26.4447 37.8279L28.8447 34.9923C28.9941 34.8165 29.0729 34.6009 29.0798 34.3825C29.0895 34.1412 29.0108 33.8975 28.8447 33.7021Z" fill="#3615F2"/>
<path id="Fill 44" fill-rule="evenodd" clip-rule="evenodd" d="M63.3364 55.9674C63.3364 56.7363 63.2002 57.4749 62.9502 58.1588C62.056 60.6013 59.7117 62.3455 56.9583 62.3455C54.2054 62.3455 51.8611 60.6013 50.9669 58.1588C50.7169 57.4749 50.5807 56.7363 50.5807 55.9674C50.5807 52.4467 53.4359 49.5909 56.9583 49.5909C60.4813 49.5909 63.3364 52.4467 63.3364 55.9674Z" fill="#629DFF"/>
<path id="Fill 46" fill-rule="evenodd" clip-rule="evenodd" d="M62.9503 58.1584C62.0561 60.601 59.7118 62.3452 56.9584 62.3452C54.2055 62.3452 51.8612 60.601 50.967 58.1584C51.8612 55.7176 54.2055 53.9734 56.9584 53.9734C59.7118 53.9734 62.0561 55.7176 62.9503 58.1584Z" fill="#3261F7"/>
<path id="Fill 50" fill-rule="evenodd" clip-rule="evenodd" d="M92.0485 55.9674C92.0485 56.7363 91.9123 57.4749 91.6623 58.1588C90.7674 60.6013 88.4238 62.3455 85.6703 62.3455C82.9169 62.3455 80.5732 60.6013 79.6789 58.1588C79.4289 57.4749 79.2927 56.7363 79.2927 55.9674C79.2927 52.4467 82.1479 49.5909 85.6703 49.5909C89.1933 49.5909 92.0485 52.4467 92.0485 55.9674Z" fill="#629DFF"/>
<path id="Fill 52" fill-rule="evenodd" clip-rule="evenodd" d="M91.6624 58.1584C90.7675 60.601 88.4239 62.3452 85.6704 62.3452C82.917 62.3452 80.5733 60.601 79.6785 58.1584C80.5733 55.7176 82.917 53.9734 85.6704 53.9734C88.4239 53.9734 90.7675 55.7176 91.6624 58.1584Z" fill="#3261F7"/>
<path id="Fill 54" fill-rule="evenodd" clip-rule="evenodd" d="M34.5635 39.5703V44.6778C34.5635 45.4341 33.952 46.0456 33.1957 46.0456H27.6727C26.9164 46.0456 26.3049 45.4341 26.3049 44.6778V39.5703C26.3049 39.0313 26.5417 38.5198 26.9526 38.1715L29.7882 35.7715C29.9819 35.6088 30.2238 35.5301 30.4618 35.5382C30.6807 35.5433 30.9008 35.6221 31.0784 35.7715L33.9141 38.1715C34.3267 38.5198 34.5635 39.0313 34.5635 39.5703Z" fill="#629DFF"/>
<path id="Fill 56" fill-rule="evenodd" clip-rule="evenodd" d="M34.5635 22.2087V27.3161C34.5635 27.8552 34.3267 28.3661 33.9141 28.715L31.0784 31.115C30.9008 31.2661 30.6807 31.3431 30.4618 31.3483C30.2238 31.3564 29.9819 31.2776 29.7882 31.115L26.9526 28.715C26.5417 28.3661 26.3049 27.8552 26.3049 27.3161V22.2087C26.3049 21.4523 26.9164 20.8391 27.6727 20.8391H33.1957C33.952 20.8391 34.5635 21.4523 34.5635 22.2087Z" fill="#629DFF"/>
<path id="Fill 60" fill-rule="evenodd" clip-rule="evenodd" d="M28.3399 33.4784C28.3335 33.6973 28.2548 33.9123 28.1048 34.0887L25.7048 36.9238C25.3582 37.3347 24.845 37.5732 24.306 37.5732H19.1985C18.4427 37.5732 17.8312 36.96 17.8312 36.2037V30.6807C17.8312 29.9261 18.4427 29.3129 19.1985 29.3129H24.306C24.845 29.3129 25.3582 29.5496 25.7048 29.9623L28.1048 32.7979C28.2709 32.9933 28.3496 33.237 28.3399 33.4784Z" fill="#629DFF"/>
<path id="Fill 64" fill-rule="evenodd" clip-rule="evenodd" d="M43.0371 30.6806V36.2036C43.0371 36.9599 42.4239 37.5731 41.6693 37.5731H36.5619C36.0228 37.5731 35.5101 37.3352 35.1619 36.9237L32.7636 34.0886C32.594 33.8881 32.5153 33.6381 32.5285 33.3932C32.5383 33.1794 32.617 32.9703 32.7636 32.7978L35.1619 29.9622C35.5101 29.5496 36.0228 29.3134 36.5619 29.3134H41.6693C42.4239 29.3134 43.0371 29.9266 43.0371 30.6806Z" fill="#629DFF"/>
<path id="Fill 66" fill-rule="evenodd" clip-rule="evenodd" d="M116.434 24.9324C116.434 27.6117 114.263 29.7835 111.583 29.7835C108.904 29.7835 106.732 27.6117 106.732 24.9324C106.732 22.2531 108.904 20.0818 111.583 20.0818C114.263 20.0818 116.434 22.2531 116.434 24.9324Z" fill="#629DFF"/>
<path id="Fill 68" fill-rule="evenodd" clip-rule="evenodd" d="M116.434 42.5175C116.434 45.1968 114.263 47.3687 111.583 47.3687C108.904 47.3687 106.732 45.1968 106.732 42.5175C106.732 39.8382 108.904 37.6664 111.583 37.6664C114.263 37.6664 116.434 39.8382 116.434 42.5175Z" fill="#629DFF"/>
<path id="Fill 70" fill-rule="evenodd" clip-rule="evenodd" d="M120.376 38.5762C117.697 38.5762 115.525 36.4044 115.525 33.7251C115.525 31.0457 117.697 28.8739 120.376 28.8739C123.055 28.8739 125.227 31.0457 125.227 33.7251C125.227 36.4044 123.055 38.5762 120.376 38.5762Z" fill="#629DFF"/>
<path id="Fill 72" fill-rule="evenodd" clip-rule="evenodd" d="M102.791 38.5762C100.111 38.5762 97.9401 36.4044 97.9401 33.7251C97.9401 31.0457 100.111 28.8739 102.791 28.8739C105.47 28.8739 107.641 31.0457 107.641 33.7251C107.641 36.4044 105.47 38.5762 102.791 38.5762Z" fill="#629DFF"/>
<path id="Fill 74" fill-rule="evenodd" clip-rule="evenodd" d="M66.2476 29.8786V32.6401C66.2476 33.0608 65.9056 33.4027 65.4849 33.4027H59.2533C58.8309 33.4027 58.4907 33.0608 58.4907 32.6401V29.8786C58.4907 29.4579 58.8309 29.116 59.2533 29.116H65.4849C65.9056 29.116 66.2476 29.4579 66.2476 29.8786Z" fill="#130F5B"/>
<path id="Fill 76" fill-rule="evenodd" clip-rule="evenodd" d="M83.8049 29.8786V32.6401C83.8049 33.0608 83.463 33.4027 83.0406 33.4027H76.809C76.3883 33.4027 76.0463 33.0608 76.0463 32.6401V29.8786C76.0463 29.4579 76.3883 29.116 76.809 29.116H83.0406C83.463 29.116 83.8049 29.4579 83.8049 29.8786Z" fill="#130F5B"/>
<path id="Fill 78" fill-rule="evenodd" clip-rule="evenodd" d="M74.1645 40.3135H67.9334C67.5116 40.3135 67.1702 39.9721 67.1702 39.5503V36.7894C67.1702 36.3681 67.5116 36.0267 67.9334 36.0267H74.1645C74.5857 36.0267 74.9277 36.3681 74.9277 36.7894V39.5503C74.9277 39.9721 74.5857 40.3135 74.1645 40.3135Z" fill="#6CE4E3"/>
<path id="Fill 82" fill-rule="evenodd" clip-rule="evenodd" d="M73.4175 38.6893H68.6227C68.4244 38.6893 68.264 38.319 68.264 37.8627V37.5915C68.264 37.1352 68.4244 36.7662 68.6227 36.7662H73.4175C73.6158 36.7662 73.7761 37.1352 73.7761 37.5915V37.8627C73.7761 38.319 73.6158 38.6893 73.4175 38.6893Z" fill="#C1F3F0"/>
<path id="Fill 84" fill-rule="evenodd" clip-rule="evenodd" d="M47.0217 61.9295V61.9312C47.0217 61.9329 47.0205 61.9358 47.0188 61.9375C46.5533 63.2984 46.0142 64.7835 45.409 66.3479C45.3895 66.3973 45.3694 66.4479 45.3498 66.4973C45.2332 66.7967 45.1148 67.099 44.9935 67.4048C43.1705 71.9846 40.7901 77.1542 37.9038 81.9852C32.4084 91.1841 25.0837 99.1502 16.3021 99.4559C24.4148 90.9967 28.3314 77.8645 30.0297 70.1553C25.3056 69.9318 19.9711 68.6226 14.5452 65.2318C5.44982 59.5473 2.34293 50.2996 1.96649 42.4306C2.49925 38.4921 3.15212 34.841 3.83718 31.7507C3.48546 36.1956 3.86017 46.3708 13.0096 54.2726C25.0653 64.6829 43.0372 60.3007 45.9958 56.9025C45.9958 56.9025 45.7217 59.0921 47.0217 61.9295Z" fill="#130F5B"/>
<path id="Fill 86" fill-rule="evenodd" clip-rule="evenodd" d="M97.3601 7.82678L97.0842 11.7457C88.5423 15.6498 86.5911 25.1676 86.5911 25.1676H55.1107C54.1348 16.5044 44.9572 10.8911 44.9572 10.8911V7.82678H97.3601Z" fill="#130F5B"/>
<path id="Fill 88" fill-rule="evenodd" clip-rule="evenodd" d="M3.586 58.7657C3.586 58.7657 1.28485 81.5594 8.73658 93.2853C9.17508 79.5876 12.3527 68.1899 12.3527 68.1899C12.3527 68.1899 7.31186 65.6698 3.586 58.7657Z" fill="#3261F7"/>
<path id="Fill 90" fill-rule="evenodd" clip-rule="evenodd" d="M104.515 73.1218C104.515 73.1218 109.556 90.2172 124.241 96.4638C117.447 86.3816 115.584 74.2172 115.584 74.2172C115.584 74.2172 110.981 76.1902 104.515 73.1218Z" fill="#3261F7"/>
<path id="Fill 126" fill-rule="evenodd" clip-rule="evenodd" d="M75.1242 44.1248V46.8863C75.1242 47.307 74.7823 47.649 74.3616 47.649H68.13C67.7075 47.649 67.3673 47.307 67.3673 46.8863V44.1248C67.3673 43.7041 67.7075 43.3622 68.13 43.3622H74.3616C74.7823 43.3622 75.1242 43.7041 75.1242 44.1248Z" fill="#130F5B"/>
<g id="Path 6 Copy" style="mix-blend-mode:overlay">
<path d="M111.583 20.0818C111.583 20.0818 107.641 20.0818 106.732 24.2712" stroke="white" stroke-width="3" stroke-linecap="round" stroke-linejoin="round"/>
</g>
<g id="Path 6 Copy 3" style="mix-blend-mode:overlay">
<path d="M102.929 29.6971C102.929 29.6971 98.9874 29.6971 98.0783 33.8865" stroke="white" stroke-width="3" stroke-linecap="round" stroke-linejoin="round"/>
</g>
</g>
</svg>
