<svg width="120" height="120" viewBox="0 0 120 120" fill="none" xmlns="http://www.w3.org/2000/svg">
<path fill-rule="evenodd" clip-rule="evenodd" d="M120 59.8528C120 27.1355 93.1374 0.612305 60.0013 0.612305C26.8652 0.612305 0 27.1355 0 59.8528C0 92.5727 26.8652 119.093 60.0013 119.093C93.1374 119.093 120 92.5727 120 59.8528Z" fill="#365001"/>
<path fill-rule="evenodd" clip-rule="evenodd" d="M90.7692 59.8515C90.7692 43.0732 76.9953 29.473 59.9999 29.473C43.0072 29.473 29.2307 43.0732 29.2307 59.8515C29.2307 76.6324 43.0072 90.2325 59.9999 90.2325C76.9953 90.2325 90.7692 76.6324 90.7692 59.8515Z" fill="white"/>
<path fill-rule="evenodd" clip-rule="evenodd" d="M86.1539 59.8515C86.1539 45.5905 74.4432 34.03 60 34.03C45.5569 34.03 33.8462 45.5905 33.8462 59.8515C33.8462 74.1152 45.5569 85.6756 60 85.6756C74.4432 85.6756 86.1539 74.1152 86.1539 59.8515Z" fill="#FBCE26"/>
<path fill-rule="evenodd" clip-rule="evenodd" d="M62.3369 59.0921C62.3369 57.836 61.3027 56.8148 60.028 56.8148C58.7534 56.8148 57.7216 57.836 57.7216 59.0921C57.7216 60.3506 58.7534 61.3718 60.028 61.3718C61.3027 61.3718 62.3369 60.3506 62.3369 59.0921Z" fill="white"/>
<path fill-rule="evenodd" clip-rule="evenodd" d="M60.1905 53.7761L59.4594 53.7629C58.1444 53.734 56.9948 52.8593 56.5918 51.5843L53.3134 41.1625C52.6701 39.1156 54.1943 37.0265 56.305 37.0686L63.996 37.2267C66.1041 37.2688 67.5482 39.4159 66.8197 41.4365L63.1408 51.7186C62.6887 52.9753 61.5029 53.8051 60.1905 53.7761Z" fill="white"/>
<path fill-rule="evenodd" clip-rule="evenodd" d="M65.317 60.7118L65.333 59.9925C65.3597 58.694 66.2482 57.5589 67.5396 57.1584L78.0924 53.9238C80.1683 53.2886 82.2815 54.7937 82.2388 56.8778L82.0814 64.4693C82.0387 66.5534 79.8615 67.9769 77.8176 67.2601L67.4036 63.6275C66.1308 63.1811 65.2903 62.0102 65.317 60.7118Z" fill="white"/>
<path fill-rule="evenodd" clip-rule="evenodd" d="M59.9862 64.4104L60.7173 64.4262C62.0297 64.4552 63.182 65.3297 63.585 66.6046L66.8608 77.0222C67.5067 79.0715 65.9825 81.1576 63.8718 81.1181L56.1808 80.9601C54.0726 80.9179 52.6285 78.7685 53.3544 76.7509L57.0359 66.4702C57.4854 65.2138 58.6712 64.3841 59.9862 64.4104Z" fill="white"/>
<path fill-rule="evenodd" clip-rule="evenodd" d="M54.8972 60.5122L54.8812 61.234C54.8518 62.5298 53.9661 63.6675 52.6749 64.0654L42.1237 67.2998C40.0482 67.9375 37.9353 66.4325 37.9753 64.3485L38.1354 56.7549C38.178 54.6734 40.355 53.2476 42.3985 53.9643L52.811 57.5992C54.0835 58.0456 54.9239 59.2138 54.8972 60.5122Z" fill="white"/>
</svg>
