<svg width="73" height="40" viewBox="0 0 73 40" fill="none" xmlns="http://www.w3.org/2000/svg">
<mask id="mask0" mask-type="alpha" maskUnits="userSpaceOnUse" x="28" y="16" width="18" height="7">
<path fill-rule="evenodd" clip-rule="evenodd" d="M43.9936 16.6522C39.9956 19.9742 36.3435 20.8283 33.9855 20.9594C31.4285 21.106 29.7884 20.4563 29.7728 20.4511C29.3587 20.2834 28.8871 20.4773 28.7195 20.8912C28.5466 21.3052 28.7457 21.7819 29.1597 21.9497C29.2278 21.9759 30.7735 22.5994 33.2415 22.5994C33.4773 22.5994 33.7183 22.5942 33.9751 22.5784C35.6518 22.4946 37.3443 22.1278 39.0105 21.4937C41.075 20.7026 43.1028 19.4922 45.0258 17.8941C45.3664 17.6111 45.4136 17.1028 45.1306 16.757C44.972 16.566 44.7425 16.4673 44.5105 16.4673C44.3288 16.4673 44.1455 16.5279 43.9936 16.6522Z" fill="white"/>
</mask>
<g mask="url(#mask0)">
<path fill-rule="evenodd" clip-rule="evenodd" d="M43.9936 16.6522C39.9956 19.9742 36.3435 20.8283 33.9855 20.9594C31.4285 21.106 29.7884 20.4563 29.7728 20.4511C29.3587 20.2834 28.8871 20.4773 28.7195 20.8912C28.5466 21.3052 28.7457 21.7819 29.1597 21.9497C29.2278 21.9759 30.7735 22.5994 33.2415 22.5994C33.4773 22.5994 33.7183 22.5942 33.9751 22.5784C35.6518 22.4946 37.3443 22.1278 39.0105 21.4937C41.075 20.7026 43.1028 19.4922 45.0258 17.8941C45.3664 17.6111 45.4136 17.1028 45.1306 16.757C44.972 16.566 44.7425 16.4673 44.5105 16.4673C44.3288 16.4673 44.1455 16.5279 43.9936 16.6522Z" fill="#FBCE26"/>
</g>
<mask id="mask1" mask-type="alpha" maskUnits="userSpaceOnUse" x="33" y="10" width="18" height="19">
<path fill-rule="evenodd" clip-rule="evenodd" d="M49.574 10.6733L33.9908 27.3622C33.6816 27.6871 33.7026 28.2005 34.0274 28.5045C34.1794 28.6512 34.3785 28.7245 34.5776 28.7245C34.7925 28.7245 35.0073 28.6355 35.1697 28.4678L50.753 11.7789C51.0621 11.4541 51.0412 10.9406 50.7164 10.6367C50.5613 10.4891 50.3632 10.4167 50.1656 10.4167C49.949 10.4168 49.7328 10.5036 49.574 10.6733Z" fill="white"/>
</mask>
<g mask="url(#mask1)">
<path fill-rule="evenodd" clip-rule="evenodd" d="M49.574 10.6733L33.9908 27.3622C33.6816 27.6871 33.7026 28.2005 34.0274 28.5045C34.1794 28.6512 34.3785 28.7245 34.5776 28.7245C34.7925 28.7245 35.0073 28.6355 35.1697 28.4678L50.753 11.7789C51.0621 11.4541 51.0412 10.9406 50.7164 10.6367C50.5613 10.4891 50.3632 10.4167 50.1656 10.4167C49.949 10.4168 49.7328 10.5036 49.574 10.6733Z" fill="#FBCE26"/>
</g>
<path fill-rule="evenodd" clip-rule="evenodd" d="M19.1201 12.214H3.52637V12.1721C3.52637 11.5066 4.06607 10.9617 4.73677 10.9617H17.9202C18.5856 10.9617 19.1306 11.5014 19.1306 12.1721V12.214H19.1201Z" fill="white"/>
<path fill-rule="evenodd" clip-rule="evenodd" d="M50.0437 22.8828L50.1066 22.7739L58.9188 27.8617L58.8559 27.9707L50.0437 22.8828Z" fill="#D3B8BD"/>
<path fill-rule="evenodd" clip-rule="evenodd" d="M48.7146 27.9807H58.8903V27.855H48.7146V27.9807Z" fill="#D3B8BD"/>
<path fill-rule="evenodd" clip-rule="evenodd" d="M50.0503 32.9465L58.8625 27.8577L58.9254 27.9665L50.1132 33.0554L50.0503 32.9465Z" fill="#D3B8BD"/>
<path fill-rule="evenodd" clip-rule="evenodd" d="M53.7483 36.6974L58.8372 27.8853L58.946 27.9481L53.8572 36.7604L53.7483 36.6974Z" fill="#D3B8BD"/>
<path fill-rule="evenodd" clip-rule="evenodd" d="M58.8275 38.0883H58.9532V27.9126H58.8275V38.0883Z" fill="#D3B8BD"/>
<path fill-rule="evenodd" clip-rule="evenodd" d="M58.8309 27.9425L58.9398 27.8796L64.0277 36.6918L63.9188 36.7547L58.8309 27.9425Z" fill="#D3B8BD"/>
<path fill-rule="evenodd" clip-rule="evenodd" d="M58.8539 27.9722L58.9168 27.8633L67.729 32.9511L67.6661 33.06L58.8539 27.9722Z" fill="#D3B8BD"/>
<path fill-rule="evenodd" clip-rule="evenodd" d="M58.8904 27.9807H69.0661V27.855H58.8904V27.9807Z" fill="#D3B8BD"/>
<path fill-rule="evenodd" clip-rule="evenodd" d="M58.858 27.8594L67.6702 22.7705L67.7331 22.8794L58.9209 27.9683L58.858 27.8594Z" fill="#D3B8BD"/>
<path fill-rule="evenodd" clip-rule="evenodd" d="M58.8376 27.8866L63.9266 19.0745L64.0354 19.1373L58.9466 27.9495L58.8376 27.8866Z" fill="#D3B8BD"/>
<mask id="mask2" mask-type="alpha" maskUnits="userSpaceOnUse" x="47" y="16" width="24" height="24">
<path fill-rule="evenodd" clip-rule="evenodd" d="M47.761 27.9177C47.761 34.064 52.7441 39.0471 58.8904 39.0471C65.0367 39.0471 70.0198 34.064 70.0198 27.9177C70.0145 21.7714 65.0314 16.7883 58.8904 16.7883C52.7441 16.7883 47.761 21.7714 47.761 27.9177ZM49.9512 27.9124C49.9512 22.9766 53.9545 18.9733 58.8904 18.9733C63.8263 18.9733 67.8295 22.9766 67.8295 27.9124C67.8243 32.8483 63.8263 36.8516 58.8904 36.8516C53.9545 36.8516 49.9512 32.8483 49.9512 27.9124Z" fill="white"/>
</mask>
<g mask="url(#mask2)">
<path fill-rule="evenodd" clip-rule="evenodd" d="M47.761 27.9177C47.761 34.064 52.7441 39.0471 58.8904 39.0471C65.0367 39.0471 70.0198 34.064 70.0198 27.9177C70.0145 21.7714 65.0314 16.7883 58.8904 16.7883C52.7441 16.7883 47.761 21.7714 47.761 27.9177ZM49.9512 27.9124C49.9512 22.9766 53.9545 18.9733 58.8904 18.9733C63.8263 18.9733 67.8295 22.9766 67.8295 27.9124C67.8243 32.8483 63.8263 36.8516 58.8904 36.8516C53.9545 36.8516 49.9512 32.8483 49.9512 27.9124Z" fill="#365001"/>
</g>
<path fill-rule="evenodd" clip-rule="evenodd" d="M71.5183 28.3737C71.2668 28.3737 71.0625 28.1693 71.0625 27.9178C71.0625 21.2056 65.6026 15.7457 58.8904 15.7457C52.1781 15.7457 46.7182 21.2056 46.7182 27.9178C46.7182 28.1693 46.5139 28.3737 46.2624 28.3737C46.0108 28.3737 45.8065 28.1693 45.8065 27.9178C45.8065 24.4229 47.1689 21.1374 49.6368 18.6642C52.11 16.1911 55.3954 14.834 58.8904 14.834C62.3853 14.834 65.6706 16.1963 68.1439 18.6642C70.6171 21.1374 71.9741 24.4229 71.9741 27.9178C71.9741 28.1693 71.7698 28.3737 71.5183 28.3737Z" fill="white"/>
<path fill-rule="evenodd" clip-rule="evenodd" d="M58.5708 28.6303C58.5446 28.6303 58.5237 28.6251 58.4975 28.6094L47.4571 22.5469C47.3785 22.505 47.3471 22.4002 47.389 22.3217C47.4309 22.2431 47.5357 22.2116 47.6143 22.2535L58.6546 28.316C58.7332 28.3579 58.7646 28.4627 58.7227 28.5413C58.6913 28.5989 58.6284 28.6303 58.5708 28.6303Z" fill="white"/>
<path fill-rule="evenodd" clip-rule="evenodd" d="M59.2413 28.6934C59.1785 28.6986 59.1208 28.6672 59.0894 28.6095C59.0422 28.5309 59.0737 28.4261 59.1523 28.3842L70.1245 22.196C70.2031 22.1488 70.3079 22.1803 70.3498 22.2589C70.3969 22.3375 70.3655 22.4423 70.2869 22.4842L59.3147 28.6724C59.2937 28.6829 59.2675 28.6881 59.2413 28.6934Z" fill="white"/>
<path fill-rule="evenodd" clip-rule="evenodd" d="M48.1069 7.30966C47.7138 7.51402 47.5567 8.00127 47.7662 8.39955L58.1726 28.2899C58.3193 28.5676 58.5969 28.7248 58.8904 28.7248C59.0162 28.7248 59.1419 28.6934 59.2624 28.6305C59.6554 28.4262 59.8126 27.9389 59.603 27.5406L49.1968 7.65031C49.0541 7.37595 48.7736 7.2165 48.4818 7.21655C48.3555 7.21655 48.2271 7.24637 48.1069 7.30966Z" fill="#FBCE26"/>
<mask id="mask3" mask-type="alpha" maskUnits="userSpaceOnUse" x="22" y="6" width="12" height="24">
<path fill-rule="evenodd" clip-rule="evenodd" d="M23.0866 6.09919C22.6779 6.27205 22.484 6.74363 22.6569 7.15763L31.8109 28.8453C31.9419 29.1544 32.2405 29.3378 32.5549 29.3378C32.6597 29.3378 32.7698 29.3168 32.8693 29.2749C33.278 29.102 33.4719 28.6304 33.299 28.2165L24.145 6.52885C24.0151 6.22169 23.7165 6.03589 23.4004 6.03589C23.2959 6.03589 23.1894 6.05622 23.0866 6.09919Z" fill="white"/>
</mask>
<g mask="url(#mask3)">
<path fill-rule="evenodd" clip-rule="evenodd" d="M23.0866 6.09919C22.6779 6.27205 22.484 6.74363 22.6569 7.15763L31.8109 28.8453C31.9419 29.1544 32.2405 29.3378 32.5549 29.3378C32.6597 29.3378 32.7698 29.3168 32.8693 29.2749C33.278 29.102 33.4719 28.6304 33.299 28.2165L24.145 6.52885C24.0151 6.22169 23.7165 6.03589 23.4004 6.03589C23.2959 6.03589 23.1894 6.05622 23.0866 6.09919Z" fill="#FBCE26"/>
</g>
<path fill-rule="evenodd" clip-rule="evenodd" d="M50.1451 9.46832L56.4801 7.66587L57.7691 10.9197L58.4712 25.3817L59.1105 26.6078L58.3455 10.8412C58.3455 10.8098 58.335 10.7783 58.3245 10.7468L56.9202 7.20476C56.8678 7.06848 56.7159 6.98988 56.5692 7.0318L49.8674 8.93909L50.1451 9.46832Z" fill="#FBCE26"/>
<path fill-rule="evenodd" clip-rule="evenodd" d="M13.1467 27.6874V17.7419H13.0209V27.809L4.30105 22.7745L4.23817 22.8834L12.8486 27.8548H2.90808V27.9806H12.8475L4.24357 32.9492L4.30645 33.0581L12.9145 28.0871L7.94366 36.695L8.05255 36.7578L13.0209 28.1543V38.0882H13.1467V28.1527L18.1137 36.7556L18.2226 36.6927L13.2527 28.0847L21.8632 33.0561L21.926 32.9472L13.3238 27.9806H23.2596V27.8548H13.3156L21.9309 22.8796L21.868 22.7707L13.2608 27.7413L18.2308 19.1349L18.1219 19.072L13.1467 27.6874Z" fill="#365001"/>
<mask id="mask4" mask-type="alpha" maskUnits="userSpaceOnUse" x="1" y="16" width="24" height="24">
<path fill-rule="evenodd" clip-rule="evenodd" d="M1.95447 27.9177C1.95447 34.064 6.93754 39.0471 13.0839 39.0471C19.2302 39.0471 24.2132 34.064 24.2132 27.9177C24.2132 21.7714 19.2302 16.7883 13.0839 16.7883C6.93754 16.7883 1.95447 21.7714 1.95447 27.9177ZM4.14471 27.9124C4.14471 22.9766 8.14794 18.9733 13.0839 18.9733C18.0198 18.9733 22.023 22.9766 22.023 27.9124C22.023 32.8483 18.0198 36.8516 13.0839 36.8516C8.14794 36.8516 4.14471 32.8483 4.14471 27.9124Z" fill="white"/>
</mask>
<g mask="url(#mask4)">
<path fill-rule="evenodd" clip-rule="evenodd" d="M1.95447 27.9177C1.95447 34.064 6.93754 39.0471 13.0839 39.0471C19.2302 39.0471 24.2132 34.064 24.2132 27.9177C24.2132 21.7714 19.2302 16.7883 13.0839 16.7883C6.93754 16.7883 1.95447 21.7714 1.95447 27.9177ZM4.14471 27.9124C4.14471 22.9766 8.14794 18.9733 13.0839 18.9733C18.0198 18.9733 22.023 22.9766 22.023 27.9124C22.023 32.8483 18.0198 36.8516 13.0839 36.8516C8.14794 36.8516 4.14471 32.8483 4.14471 27.9124Z" fill="#365001"/>
</g>
<path fill-rule="evenodd" clip-rule="evenodd" d="M25.7118 28.3737C25.4603 28.3737 25.256 28.1693 25.256 27.9178C25.256 21.2056 19.7961 15.7457 13.0838 15.7457C6.37163 15.7457 0.911729 21.2056 0.911729 27.9178C0.911729 28.1693 0.707376 28.3737 0.455865 28.3737C0.204353 28.3737 0 28.1693 0 27.9178C0 24.4229 1.36235 21.1374 3.83031 18.6642C6.30351 16.1911 9.58888 14.834 13.0838 14.834C16.5788 14.834 19.8642 16.1963 22.3374 18.6642C24.8106 21.1374 26.1677 24.4229 26.1677 27.9178C26.1677 28.1693 25.9633 28.3737 25.7118 28.3737Z" fill="white"/>
<path fill-rule="evenodd" clip-rule="evenodd" d="M12.7642 28.6303C12.738 28.6303 12.717 28.6251 12.6908 28.6094L1.65053 22.5469C1.57193 22.505 1.54049 22.4002 1.58241 22.3217C1.62433 22.2431 1.72913 22.2116 1.80772 22.2535L12.848 28.316C12.9266 28.3579 12.9581 28.4627 12.9162 28.5413C12.8847 28.5989 12.8271 28.6303 12.7642 28.6303Z" fill="white"/>
<path fill-rule="evenodd" clip-rule="evenodd" d="M13.4401 28.6931C13.3772 28.6984 13.3196 28.6669 13.2881 28.6093C13.241 28.5307 13.2724 28.4259 13.351 28.384L24.3232 22.1957C24.4018 22.1486 24.5066 22.18 24.5485 22.2586C24.5957 22.3372 24.5642 22.442 24.4857 22.4839L13.5135 28.6722C13.4873 28.6826 13.4611 28.6879 13.4401 28.6931Z" fill="white"/>
<path fill-rule="evenodd" clip-rule="evenodd" d="M31.6957 24.386C31.4704 24.386 31.245 24.4069 31.0302 24.4437L12.9057 26.0208V26.0261C11.7843 26.1151 10.8988 27.0531 10.8988 28.2006C10.8988 29.3481 11.7843 30.2861 12.9057 30.3751V30.3803L31.0302 31.9575C31.245 31.9942 31.4704 32.0152 31.6957 32.0152C33.8021 32.0152 35.5103 30.307 35.5103 28.2006C35.5103 26.0942 33.8021 24.386 31.6957 24.386Z" fill="#F45877"/>
<path fill-rule="evenodd" clip-rule="evenodd" d="M58.8903 26.2935C59.7845 26.2935 60.5094 27.0183 60.5094 27.9125C60.5094 28.8068 59.7845 29.5317 58.8903 29.5317C57.9961 29.5317 57.2712 28.8068 57.2712 27.9125C57.2712 27.0183 57.9961 26.2935 58.8903 26.2935Z" fill="#365001"/>
<path fill-rule="evenodd" clip-rule="evenodd" d="M45.7376 3.36254C45.753 3.30523 45.783 3.25123 45.8274 3.20672L46.8492 2.18496C47.0536 1.9806 47.106 1.70289 46.996 1.4409C46.8859 1.17891 46.6501 1.02172 46.3672 1.02172H40.5719C40.378 1.02172 40.2208 0.864522 40.2208 0.670648C40.2208 0.476775 40.378 0.31958 40.5719 0.31958H46.3672C46.9383 0.31958 47.4309 0.649689 47.6509 1.17891C47.871 1.70813 47.7557 2.28975 47.3523 2.69322L46.5812 3.46429L48.5574 7.47717C48.657 7.68153 48.5731 7.93304 48.3688 8.0326C48.3111 8.0588 48.2482 8.07451 48.1854 8.07451C48.0335 8.07451 47.8868 7.99068 47.8133 7.84396L45.7593 3.67306C45.7106 3.57307 45.7058 3.46178 45.7376 3.36254Z" fill="#FBCE26"/>
<path fill-rule="evenodd" clip-rule="evenodd" d="M49.1024 7.84923L47.8606 8.47801C47.6562 8.5828 47.4099 8.49891 47.3104 8.29985L47.085 7.85447C46.9802 7.65012 47.0641 7.40384 47.2632 7.30429L48.5051 6.67551C48.7094 6.57071 48.9557 6.65455 49.0553 6.85366L49.2805 7.29905C49.3853 7.49816 49.3067 7.74443 49.1024 7.84923Z" fill="white"/>
<path fill-rule="evenodd" clip-rule="evenodd" d="M22.0072 11.9258H3.67309C3.64689 11.9258 3.62069 11.931 3.59973 11.9363C3.52637 11.9153 3.44778 11.9258 3.37966 11.9677C3.24342 12.0463 3.19627 12.2245 3.27486 12.3659L12.6594 28.3526C12.7118 28.4469 12.8113 28.4941 12.9109 28.4941C12.9633 28.4941 13.0105 28.4836 13.0576 28.4521C13.1938 28.3735 13.241 28.1954 13.1624 28.054L4.03464 12.5022H21.6509L22.0072 11.9258Z" fill="#365001"/>
<path fill-rule="evenodd" clip-rule="evenodd" d="M20.9698 5.14013L26.2149 5.83178C26.7389 5.8999 27.1266 6.30337 27.1266 6.78019C27.1266 7.30417 26.6603 7.7286 26.0787 7.73908L20.776 7.84388C19.9271 7.8596 19.225 7.24654 19.225 6.48152C19.2355 5.65887 20.0581 5.01961 20.9698 5.14013Z" fill="white"/>
<mask id="mask5" mask-type="alpha" maskUnits="userSpaceOnUse" x="12" y="8" width="14" height="22">
<path fill-rule="evenodd" clip-rule="evenodd" d="M23.8098 9.0021L12.2193 27.7764C11.9835 28.1589 12.0988 28.6566 12.4813 28.8924C12.6124 28.9764 12.759 29.013 12.9057 29.013C13.1782 29.013 13.4454 28.8768 13.5974 28.6305L25.1879 9.8562C25.4237 9.47369 25.3084 8.9759 24.9259 8.74011C24.7918 8.65743 24.6436 8.61792 24.4975 8.61792C24.2267 8.61797 23.963 8.75368 23.8098 9.0021Z" fill="white"/>
</mask>
<g mask="url(#mask5)">
<path fill-rule="evenodd" clip-rule="evenodd" d="M23.8098 9.0021L12.2193 27.7764C11.9835 28.1589 12.0988 28.6566 12.4813 28.8924C12.6124 28.9764 12.759 29.013 12.9057 29.013C13.1782 29.013 13.4454 28.8768 13.5974 28.6305L25.1879 9.8562C25.4237 9.47369 25.3084 8.9759 24.9259 8.74011C24.7918 8.65743 24.6436 8.61792 24.4975 8.61792C24.2267 8.61797 23.963 8.75368 23.8098 9.0021Z" fill="#FBCE26"/>
</g>
<path fill-rule="evenodd" clip-rule="evenodd" d="M31.6957 24.3862C31.4704 24.3862 31.245 24.4072 31.0302 24.4439L12.9057 26.0211V26.0263C11.7843 26.1154 10.8988 27.0533 10.8988 28.2008C10.8988 29.3483 11.7843 30.2863 12.9057 30.3753V30.3806L31.0302 31.9578C31.245 31.9945 31.4704 32.0155 31.6957 32.0155C33.8021 32.0155 35.5103 30.3072 35.5103 28.2008C35.5103 26.0945 33.8021 24.3862 31.6957 24.3862Z" fill="#FBCE26"/>
<path fill-rule="evenodd" clip-rule="evenodd" d="M44.3655 1.21573H40.4985C40.3413 1.21573 40.2156 1.08998 40.2156 0.932781V0.335441C40.2156 0.178246 40.3413 0.0524902 40.4985 0.0524902H44.3655C44.5227 0.0524902 44.6484 0.178246 44.6484 0.335441V0.932781C44.6484 1.08998 44.5227 1.21573 44.3655 1.21573Z" fill="#365001"/>
<mask id="mask6" mask-type="alpha" maskUnits="userSpaceOnUse" x="49" y="2" width="13" height="12">
<path fill-rule="evenodd" clip-rule="evenodd" d="M59.1471 2.34759L49.7678 5.11945C49.2858 5.26617 49.05 5.81111 49.2858 6.25644L52.8174 13.042C52.9956 13.3826 53.3938 13.5503 53.7606 13.4351L60.7296 11.2867C61.1068 11.1714 61.3426 10.7942 61.2849 10.4012L60.1637 2.99732C60.1022 2.59365 59.7579 2.31494 59.3737 2.31494C59.2991 2.31494 59.223 2.32542 59.1471 2.34759Z" fill="white"/>
</mask>
<g mask="url(#mask6)">
<path fill-rule="evenodd" clip-rule="evenodd" d="M59.1471 2.34759L49.7678 5.11945C49.2858 5.26617 49.05 5.81111 49.2858 6.25644L52.8174 13.042C52.9956 13.3826 53.3938 13.5503 53.7606 13.4351L60.7296 11.2867C61.1068 11.1714 61.3426 10.7942 61.2849 10.4012L60.1637 2.99732C60.1022 2.59365 59.7579 2.31494 59.3737 2.31494C59.2991 2.31494 59.223 2.32542 59.1471 2.34759Z" fill="#365001"/>
</g>
<path fill-rule="evenodd" clip-rule="evenodd" d="M51.5756 7.54013C51.5389 7.54013 51.5075 7.51922 51.497 7.48249C51.4813 7.44063 51.5075 7.39341 51.5547 7.3777L59.3463 5.00411C59.3882 4.98834 59.4353 5.01453 59.4511 5.06169C59.4668 5.10361 59.4406 5.15077 59.3934 5.16649L51.6018 7.54013C51.5913 7.53489 51.5861 7.54013 51.5756 7.54013Z" fill="white"/>
<path d="M51.5756 7.54013C51.5389 7.54013 51.5075 7.51922 51.497 7.48249C51.4813 7.44063 51.5075 7.39341 51.5547 7.3777L59.3463 5.00411C59.3882 4.98834 59.4353 5.01453 59.4511 5.06169C59.4668 5.10361 59.4406 5.15077 59.3934 5.16649L51.6018 7.54013C51.5913 7.53489 51.5861 7.54013 51.5756 7.54013" stroke="white"/>
<path fill-rule="evenodd" clip-rule="evenodd" d="M52.7127 8.8763C52.676 8.8763 52.6446 8.85539 52.6341 8.81866C52.6184 8.77679 52.6446 8.72958 52.6917 8.71386L59.1472 6.74893C59.1891 6.73326 59.2363 6.75946 59.252 6.80657C59.2677 6.84849 59.2415 6.89564 59.1943 6.91136L52.7389 8.8763H52.7127Z" fill="white" stroke="white"/>
<path fill-rule="evenodd" clip-rule="evenodd" d="M54.0592 10.1494C54.0226 10.1494 53.9911 10.1285 53.9806 10.0917C53.9649 10.0499 53.9911 10.0027 54.0383 9.98694L58.8694 8.51461C58.9113 8.49883 58.9585 8.52503 58.9742 8.57219C58.9899 8.61411 58.9637 8.66132 58.9166 8.67699L54.0854 10.1494H54.0592Z" fill="white" stroke="white"/>
</svg>
