<svg width="91" height="64" viewBox="0 0 91 64" fill="none" xmlns="http://www.w3.org/2000/svg">
<path fill-rule="evenodd" clip-rule="evenodd" d="M75.9596 2.23594V4.29608H64.9483V2.23594C64.9483 1.20385 65.7843 0.367432 66.8164 0.367432H74.0911C75.1235 0.367432 75.9596 1.20385 75.9596 2.23594ZM16.7874 0.367947H24.0625C25.0942 0.367947 25.9306 1.20436 25.9306 2.23608V4.29549H14.9193V2.23608C14.9193 1.20436 15.7561 0.367947 16.7874 0.367947ZM47.5346 2.75265H48.3313C49.0541 2.75265 49.7036 3.19182 49.9729 3.86235L50.8796 6.1189H39.8329L40.7392 3.86235C41.0085 3.19182 41.6584 2.75265 42.3808 2.75265H43.1778V2.20247C43.1778 1.51833 43.7324 0.964029 44.4162 0.964029H46.2961C46.9799 0.964029 47.5346 1.51833 47.5346 2.20247V2.75265Z" fill="#85B500"/>
<path fill-rule="evenodd" clip-rule="evenodd" d="M89.4308 56.6927C89.4139 56.7431 89.3963 56.7935 89.3793 56.845C88.3851 59.814 86.8366 62.1011 84.4992 63.1722C83.8099 63.4237 83.1312 63.5992 82.4655 63.7044C75.7587 64.7692 70.2533 58.726 66.3176 51.8725C63.8654 47.5996 62.0208 43.0144 60.8754 39.636C59.7521 41.7756 57.5636 43.2707 55.0135 43.4131C54.8808 43.4201 54.7472 43.4245 54.6126 43.4245C50.7068 43.4245 47.5399 40.2576 47.5399 36.3514V36.3481C47.5399 36.1789 47.4053 36.0402 47.2357 36.0402H43.7337C43.5642 36.0402 43.4295 36.1789 43.4295 36.3481V36.3514C43.4295 37.8749 42.9488 39.2854 42.1293 40.4397C40.8478 42.246 38.7395 43.4245 36.3568 43.4245C33.6361 43.4245 31.2765 41.8874 30.094 39.636C29.7825 40.5544 29.4187 41.5644 29.0053 42.6318C28.9188 42.8551 28.8295 43.0802 28.739 43.3086C27.5914 46.1923 26.0973 49.442 24.2888 52.4908C20.7636 58.4409 16.0438 63.6235 10.3769 63.8214C9.1204 63.8655 7.81723 63.6643 6.47065 63.1722C-1.6408 59.4543 -0.25413 41.09 0.835709 30.4148C0.943111 29.3629 1.06633 28.3297 1.20169 27.3252C1.54265 24.8042 1.96049 22.4678 2.3993 20.49C2.92711 18.1048 3.48398 16.2429 3.96582 15.2108C5.53015 11.86 8.13171 9.09105 11.3582 7.31744V6.38834C11.3582 4.54521 12.8523 3.05151 14.6961 3.05151H26.9503C27.9257 3.05151 28.7158 3.84158 28.7158 4.81666V5.17859H62.2536V4.81666C62.2536 3.84158 63.0437 3.05151 64.0188 3.05151H76.2741C78.1172 3.05151 79.6113 4.54521 79.6113 6.38834V7.31744C79.8908 7.47082 80.1659 7.63193 80.4359 7.80149C83.2817 9.5762 85.5765 12.1505 87.0047 15.2108C87.1838 15.5937 87.3718 16.0913 87.5667 16.6868C87.9265 17.7892 88.3024 19.2317 88.6628 20.9119C89.1204 23.0486 89.5529 25.5703 89.8906 28.2719C89.9134 28.4591 89.937 28.6464 89.959 28.8358V28.8398C90.0208 29.3596 90.08 29.8844 90.1337 30.4148C90.9039 37.962 91.8231 49.3515 89.4308 56.6927Z" fill="white"/>
<path fill-rule="evenodd" clip-rule="evenodd" d="M89.4309 56.6928C89.414 56.7432 89.3963 56.7935 89.3794 56.845C88.383 59.7309 86.8484 61.9518 84.5559 63.0027C83.8666 63.2542 83.1879 63.4297 82.5222 63.5353C84.5231 54.814 83.1868 45.9901 82.2026 41.4696C82.0613 41.5645 81.9204 41.6568 81.7744 41.7484C73.3761 46.9971 65.3257 44.4544 62.2872 43.1391C61.7612 41.8198 61.3091 40.5776 60.9325 39.4665C60.9325 39.4665 61.5927 38.0747 61.6457 36.4176C63.5392 38.5925 75.0412 41.3971 82.7565 34.7345C88.237 30.0015 88.7986 23.9943 88.6629 20.912C89.1204 23.0486 89.553 25.5704 89.8907 28.272C89.9135 28.4592 89.937 28.6464 89.9591 28.8358V28.8399C90.0209 29.3596 90.0801 29.8845 90.1338 30.4149C90.904 37.9621 91.8232 49.3515 89.4309 56.6928Z" fill="#EBF778"/>
<path fill-rule="evenodd" clip-rule="evenodd" d="M84.0763 21.7309C84.0763 28.9743 78.2048 34.8458 70.9618 34.8458C67.4594 34.8458 64.2782 33.4727 61.9256 31.236C59.4124 28.8471 57.8462 25.472 57.8462 21.7309C57.8462 14.4879 63.7184 8.61536 70.9618 8.61536C73.6571 8.61536 76.1609 9.4286 78.2442 10.8223C81.7609 13.1737 84.0763 17.1818 84.0763 21.7309Z" fill="#CAE53C"/>
<path fill-rule="evenodd" clip-rule="evenodd" d="M32.5232 21.7598C32.5232 29.0032 26.6517 34.8746 19.4083 34.8746C15.5014 34.8746 11.9928 33.1661 9.59093 30.456C7.53925 28.1414 6.29272 25.0969 6.29272 21.7598C6.29272 14.5167 12.1653 8.64417 19.4083 8.64417C22.7455 8.64417 25.7899 9.89069 28.1046 11.9424C30.8147 14.3438 32.5232 17.8524 32.5232 21.7598Z" fill="#CAE53C"/>
<path fill-rule="evenodd" clip-rule="evenodd" d="M40.5354 35.8192C40.5354 36.3113 40.4482 36.784 40.2882 37.2217C39.7159 38.7849 38.2156 39.9012 36.4534 39.9012C34.6915 39.9012 33.1912 38.7849 32.6189 37.2217C32.4589 36.784 32.3717 36.3113 32.3717 35.8192C32.3717 33.566 34.199 31.7383 36.4534 31.7383C38.7081 31.7383 40.5354 33.566 40.5354 35.8192Z" fill="#CAE53C"/>
<path fill-rule="evenodd" clip-rule="evenodd" d="M40.2882 37.2214C39.7159 38.7846 38.2156 39.9009 36.4534 39.9009C34.6915 39.9009 33.1912 38.7846 32.6189 37.2214C33.1912 35.6593 34.6915 34.543 36.4534 34.543C38.2156 34.543 39.7159 35.6593 40.2882 37.2214Z" fill="#85B500"/>
<path fill-rule="evenodd" clip-rule="evenodd" d="M58.9111 35.8192C58.9111 36.3113 58.8239 36.784 58.6639 37.2217C58.0913 38.7849 56.5913 39.9012 54.8291 39.9012C53.0669 39.9012 51.5669 38.7849 50.9946 37.2217C50.8346 36.784 50.7474 36.3113 50.7474 35.8192C50.7474 33.566 52.5747 31.7383 54.8291 31.7383C57.0838 31.7383 58.9111 33.566 58.9111 35.8192Z" fill="#CAE53C"/>
<path fill-rule="evenodd" clip-rule="evenodd" d="M58.664 37.2214C58.0913 38.7846 56.5913 39.9009 54.8291 39.9009C53.0669 39.9009 51.567 38.7846 50.9943 37.2214C51.567 35.6593 53.0669 34.543 54.8291 34.543C56.5913 34.543 58.0913 35.6593 58.664 37.2214Z" fill="#85B500"/>
<path fill-rule="evenodd" clip-rule="evenodd" d="M22.1207 25.3251V28.5939C22.1207 29.0779 21.7294 29.4693 21.2453 29.4693H17.7106C17.2266 29.4693 16.8352 29.0779 16.8352 28.5939V25.3251C16.8352 24.9801 16.9867 24.6527 17.2497 24.4298L19.0645 22.8938C19.1885 22.7897 19.3433 22.7393 19.4956 22.7445C19.6358 22.7478 19.7766 22.7982 19.8903 22.8938L21.7051 24.4298C21.9692 24.6527 22.1207 24.9801 22.1207 25.3251Z" fill="#365001"/>
<path fill-rule="evenodd" clip-rule="evenodd" d="M22.1207 14.2135V17.4823C22.1207 17.8273 21.9692 18.1543 21.7051 18.3776L19.8903 19.9136C19.7766 20.0103 19.6358 20.0596 19.4956 20.0629C19.3433 20.0681 19.1885 20.0177 19.0645 19.9136L17.2497 18.3776C16.9867 18.1543 16.8352 17.8273 16.8352 17.4823V14.2135C16.8352 13.7295 17.2266 13.337 17.7106 13.337H21.2453C21.7294 13.337 22.1207 13.7295 22.1207 14.2135Z" fill="#365001"/>
<path fill-rule="evenodd" clip-rule="evenodd" d="M18.1375 21.4262C18.1335 21.5663 18.0831 21.7039 17.9871 21.8168L16.4511 23.6312C16.2293 23.8942 15.9008 24.0469 15.5558 24.0469H12.287C11.8033 24.0469 11.412 23.6544 11.412 23.1704V19.6357C11.412 19.1527 11.8033 18.7603 12.287 18.7603H15.5558C15.9008 18.7603 16.2293 18.9118 16.4511 19.1759L17.9871 20.9907C18.0934 21.1157 18.1438 21.2717 18.1375 21.4262Z" fill="#365001"/>
<path fill-rule="evenodd" clip-rule="evenodd" d="M27.5438 19.6357V23.1704C27.5438 23.6544 27.1514 24.0469 26.6684 24.0469H23.3996C23.0546 24.0469 22.7265 23.8946 22.5036 23.6312L20.9687 21.8168C20.8602 21.6884 20.8098 21.5284 20.8183 21.3717C20.8245 21.2349 20.8749 21.101 20.9687 20.9907L22.5036 19.1759C22.7265 18.9118 23.0546 18.7606 23.3996 18.7606H26.6684C27.1514 18.7606 27.5438 19.1531 27.5438 19.6357Z" fill="#365001"/>
<path fill-rule="evenodd" clip-rule="evenodd" d="M74.5177 15.9567C74.5177 17.6714 73.1281 19.0614 71.4133 19.0614C69.6986 19.0614 68.3086 17.6714 68.3086 15.9567C68.3086 14.2419 69.6986 12.8523 71.4133 12.8523C73.1281 12.8523 74.5177 14.2419 74.5177 15.9567Z" fill="#365001"/>
<path fill-rule="evenodd" clip-rule="evenodd" d="M74.5177 27.2112C74.5177 28.9259 73.1281 30.3159 71.4133 30.3159C69.6986 30.3159 68.3086 28.9259 68.3086 27.2112C68.3086 25.4964 69.6986 24.1064 71.4133 24.1064C73.1281 24.1064 74.5177 25.4964 74.5177 27.2112Z" fill="#365001"/>
<path fill-rule="evenodd" clip-rule="evenodd" d="M77.0404 24.6887C75.326 24.6887 73.936 23.2987 73.936 21.584C73.936 19.8692 75.326 18.4792 77.0404 18.4792C78.7552 18.4792 80.1451 19.8692 80.1451 21.584C80.1451 23.2987 78.7552 24.6887 77.0404 24.6887Z" fill="#365001"/>
<path fill-rule="evenodd" clip-rule="evenodd" d="M65.7861 24.6887C64.0714 24.6887 62.6818 23.2987 62.6818 21.584C62.6818 19.8692 64.0714 18.4792 65.7861 18.4792C67.5009 18.4792 68.8905 19.8692 68.8905 21.584C68.8905 23.2987 67.5009 24.6887 65.7861 24.6887Z" fill="#365001"/>
<path fill-rule="evenodd" clip-rule="evenodd" d="M42.3985 19.1224V20.8897C42.3985 21.159 42.1796 21.3778 41.9104 21.3778H37.9222C37.6518 21.3778 37.4341 21.159 37.4341 20.8897V19.1224C37.4341 18.8531 37.6518 18.6343 37.9222 18.6343H41.9104C42.1796 18.6343 42.3985 18.8531 42.3985 19.1224Z" fill="#365001"/>
<path fill-rule="evenodd" clip-rule="evenodd" d="M53.6352 19.1224V20.8897C53.6352 21.159 53.4163 21.3778 53.146 21.3778H49.1578C48.8885 21.3778 48.6697 21.159 48.6697 20.8897V19.1224C48.6697 18.8531 48.8885 18.6343 49.1578 18.6343H53.146C53.4163 18.6343 53.6352 18.8531 53.6352 19.1224Z" fill="#365001"/>
<path fill-rule="evenodd" clip-rule="evenodd" d="M47.4653 25.8007H43.4775C43.2075 25.8007 42.989 25.5822 42.989 25.3122V23.5452C42.989 23.2756 43.2075 23.0571 43.4775 23.0571H47.4653C47.7349 23.0571 47.9538 23.2756 47.9538 23.5452V25.3122C47.9538 25.5822 47.7349 25.8007 47.4653 25.8007Z" fill="#FF804B"/>
<path fill-rule="evenodd" clip-rule="evenodd" d="M30.0939 39.6348V39.6359C30.0939 39.637 30.0931 39.6389 30.092 39.64C29.7941 40.511 29.4491 41.4614 29.0618 42.4626C29.0493 42.4942 29.0364 42.5266 29.0239 42.5582C28.9492 42.7499 28.8734 42.9433 28.7958 43.139C27.6291 46.0701 26.1056 49.3786 24.2585 52.4705C20.7414 58.3578 16.0536 63.4561 10.4333 63.6517C15.6254 58.2379 18.1321 49.8333 19.219 44.8994C16.1956 44.7563 12.7815 43.9184 9.30894 41.7483C3.48788 38.1102 1.49946 32.1917 1.25854 27.1556C1.59951 24.6349 2.01735 22.2982 2.45579 20.3204C2.23068 23.1651 2.4705 29.6773 8.32613 34.7344C16.0418 41.397 27.5438 38.5924 29.4373 36.4175C29.4373 36.4175 29.2619 37.8189 30.0939 39.6348Z" fill="#EBF778"/>
<path fill-rule="evenodd" clip-rule="evenodd" d="M62.3105 5.00916L62.134 7.51729C56.6671 10.0159 55.4184 16.1073 55.4184 16.1073H35.2709C34.6464 10.5628 28.7727 6.97035 28.7727 6.97035V5.00916H62.3105Z" fill="#EBF778"/>
<path fill-rule="evenodd" clip-rule="evenodd" d="M48.0795 28.2399V30.0073C48.0795 30.2765 47.8607 30.4954 47.5914 30.4954H43.6032C43.3329 30.4954 43.1151 30.2765 43.1151 30.0073V28.2399C43.1151 27.9707 43.3329 27.7518 43.6032 27.7518H47.5914C47.8607 27.7518 48.0795 27.9707 48.0795 28.2399Z" fill="#365001"/>
<g style="mix-blend-mode:overlay">
<path d="M71.4132 12.8523C71.4132 12.8523 68.8905 12.8523 68.3087 15.5335" stroke="white" stroke-width="3" stroke-linecap="round" stroke-linejoin="round"/>
</g>
<g style="mix-blend-mode:overlay">
<path d="M65.8748 19.0062C65.8748 19.0062 63.352 19.0062 62.7702 21.6874" stroke="white" stroke-width="3" stroke-linecap="round" stroke-linejoin="round"/>
</g>
</svg>
