<svg width="30" height="30" viewBox="0 0 30 30" fill="none" xmlns="http://www.w3.org/2000/svg">
<circle cx="15" cy="15" r="15" fill="#F88624"/>
<path fill-rule="evenodd" clip-rule="evenodd" d="M16.4067 11.8682C16.4067 11.1019 15.7651 10.4788 14.9763 10.4788C14.1881 10.4788 13.5458 11.1019 13.5458 11.8682C13.5458 12.6339 14.1881 13.2574 14.9763 13.2574C15.7651 13.2574 16.4067 12.6339 16.4067 11.8682ZM18.4312 11.8682C18.4312 13.7185 16.8821 15.2236 14.9764 15.2236C13.0712 15.2236 11.5217 13.7185 11.5217 11.8682C11.5217 10.0173 13.0712 8.51184 14.9764 8.51184C16.8821 8.51184 18.4312 10.0173 18.4312 11.8682ZM18.389 17.1559C17.7643 17.5371 17.0861 17.8074 16.3829 17.963L18.3142 19.8394C18.7098 20.223 18.7098 20.8459 18.3142 21.2298C17.919 21.6138 17.2784 21.6138 16.8836 21.2298L14.9847 19.386L13.0876 21.2298C12.8897 21.4216 12.6305 21.5176 12.3713 21.5176C12.1125 21.5176 11.8537 21.4216 11.6559 21.2298C11.2607 20.8459 11.2607 20.2234 11.6555 19.8394L13.587 17.963C12.8837 17.8074 12.2055 17.5367 11.5808 17.1559C11.1081 16.8664 10.9661 16.2597 11.264 15.8C11.561 15.3398 12.1857 15.2012 12.6592 15.4908C14.0736 16.3551 15.8955 16.3553 17.3106 15.4908C17.7842 15.2012 18.4087 15.3398 18.7063 15.8C19.0042 16.2593 18.8618 16.8664 18.389 17.1559Z" fill="white"/>
</svg>
