<svg width="30" height="30" viewBox="0 0 30 30" fill="none" xmlns="http://www.w3.org/2000/svg">
<circle cx="15" cy="15" r="15" fill="#02A7E7"/>
<path fill-rule="evenodd" clip-rule="evenodd" d="M12.2571 21.082C17.837 21.082 20.8884 16.4295 20.8884 12.3953C20.8884 12.2631 20.8857 12.1315 20.8798 12.0006C21.472 11.5697 21.9869 11.032 22.3931 10.4198C21.8496 10.6628 21.2646 10.8266 20.651 10.9005C21.2773 10.5226 21.7582 9.92447 21.9849 9.21161C21.3986 9.56131 20.7497 9.81572 20.0587 9.95262C19.5051 9.35923 18.7167 8.98804 17.8443 8.98804C16.1689 8.98804 14.8103 10.3554 14.8103 12.0409C14.8103 12.2805 14.837 12.5135 14.889 12.737C12.3678 12.6095 10.1321 11.3945 8.63611 9.5472C8.37534 9.99828 8.22523 10.5226 8.22523 11.0817C8.22523 12.141 8.76085 13.076 9.57521 13.623C9.07763 13.6076 8.61009 13.47 8.20122 13.2411C8.20057 13.2538 8.20057 13.2666 8.20057 13.28C8.20057 14.7588 9.24637 15.9932 10.6344 16.2732C10.3796 16.3429 10.1115 16.3806 9.83468 16.3806C9.6392 16.3806 9.44911 16.3611 9.2644 16.3255C9.65056 17.5385 10.7704 18.4211 12.0984 18.446C11.0599 19.2649 9.75193 19.7529 8.33063 19.7529C8.08583 19.7529 7.8444 19.7388 7.60693 19.7106C8.94958 20.5766 10.5436 21.082 12.2571 21.082Z" fill="white"/>
</svg>
