<svg width="102" height="180" viewBox="0 0 102 180" fill="none" xmlns="http://www.w3.org/2000/svg">
<g id="watch">
<path id="Combined Shape" fill-rule="evenodd" clip-rule="evenodd" d="M75.3051 4.84332C72.7582 -1.119 22.9004 -1.119 20.4614 4.84332C19.7197 6.65625 19.5794 9.57164 19.4157 12.9724C19.0609 20.3435 18.5964 29.9947 11.6603 35.6423C5.17854 35.8907 -0.000244141 41.2236 -0.000244141 47.7662V132.446C-0.000244141 139.008 5.20892 144.353 11.7173 144.572C18.9566 150.22 19.4415 159.87 19.8119 167.24C19.9827 170.641 20.1292 173.556 20.9036 175.369C23.4504 181.331 73.3083 181.331 75.7473 175.369C76.489 173.556 76.6293 170.641 76.793 167.24C77.1478 159.869 77.6123 150.218 84.5482 144.57C91.0303 144.322 96.2085 138.989 96.2085 132.446L96.2085 123.247C97.0749 123.247 97.7773 122.544 97.7773 121.678V94.7745C97.7773 93.908 97.0749 93.2056 96.2085 93.2056L96.2085 72.9961C96.3701 73.0202 96.535 73.0327 96.7019 73.0327H97.6479C99.6221 73.0327 101.222 71.4322 101.222 69.458V58.1786C101.222 56.2044 99.6221 54.6039 97.6479 54.6039H96.7019C96.535 54.6039 96.3701 54.6164 96.2085 54.6405V47.7662C96.2085 41.2046 91.0002 35.8596 84.4916 35.6403C77.2521 29.9924 76.7672 20.3425 76.3968 12.9723C76.226 9.57156 76.0795 6.65622 75.3051 4.84332Z" fill="#93C9FF"/>
<path id="Fill 6" fill-rule="evenodd" clip-rule="evenodd" d="M25.5129 170.192C29.056 172.09 66.418 174.878 71.0632 170.192C75.1001 166.12 73.4542 160.439 70.4567 156.519C66.418 151.236 29.0069 151.496 25.1095 155.898C21.6973 159.752 22.6214 168.643 25.5129 170.192Z" fill="#C4E6FC"/>
<path id="Fill 6 Copy" fill-rule="evenodd" clip-rule="evenodd" d="M25.5129 23.1268C29.056 25.0251 66.418 27.8133 71.0632 23.1268C75.1001 19.0546 73.4542 13.3742 70.4567 9.45373C66.418 4.17079 29.0069 4.43109 25.1095 8.83273C21.6973 12.6874 22.6214 21.5777 25.5129 23.1268Z" fill="#C4E6FC"/>
<path id="Fill 11" fill-rule="evenodd" clip-rule="evenodd" d="M80.5971 139.312H15.6111C9.55841 139.312 4.65179 134.405 4.65179 128.352V51.8603C4.65179 45.8076 9.55841 40.9006 15.6111 40.9006H80.5971C86.6501 40.9006 91.5571 45.8076 91.5571 51.8603V128.352C91.5571 134.405 86.6501 139.312 80.5971 139.312Z" fill="#130F5B"/>
<g id="Fill 13" style="mix-blend-mode:overlay">
<path fill-rule="evenodd" clip-rule="evenodd" d="M77.2969 45.5843H20.295C17.7083 45.5843 15.6111 43.4874 15.6111 40.9008C15.6111 38.3142 17.7083 36.2173 20.295 36.2173H77.2969C79.8835 36.2173 81.9808 38.3142 81.9808 40.9008C81.9808 43.4874 79.8835 45.5843 77.2969 45.5843Z" fill="#C4E6FC"/>
</g>
<g id="Fill 15" style="mix-blend-mode:overlay">
<path fill-rule="evenodd" clip-rule="evenodd" d="M2.18304 124.048V62.3627C2.18304 61.0694 3.2313 60.0211 4.52498 60.0211C5.81792 60.0211 6.86655 61.0694 6.86655 62.3627V124.048C6.86655 125.342 5.81792 126.39 4.52498 126.39C3.2313 126.39 2.18304 125.342 2.18304 124.048Z" fill="#C4E6FC"/>
</g>
<path id="Fill 17" fill-rule="evenodd" clip-rule="evenodd" d="M81.9807 139.312C81.9807 140.606 80.9324 141.654 79.6387 141.654H17.953C16.66 141.654 15.6114 140.606 15.6114 139.312H81.9807Z" fill="#629DFF"/>
<path id="Fill 21" fill-rule="evenodd" clip-rule="evenodd" d="M93.5738 70.8435C93.0399 69.3814 92.5208 67.1123 92.5208 63.8184C92.5208 60.5242 93.0399 58.2551 93.5738 56.793C94.0539 55.4781 95.3019 54.6039 96.7019 54.6039C96.7019 54.6039 92.7837 60.0211 93.5738 70.8435Z" fill="#629DFF"/>
<path id="Fill 23" fill-rule="evenodd" clip-rule="evenodd" d="M99.2864 68.1097C98.4203 68.1097 97.7179 67.4073 97.7179 66.5409V61.0955C97.7179 60.2294 98.4203 59.527 99.2864 59.527C100.153 59.527 100.855 60.2294 100.855 61.0955V66.5409C100.855 67.4073 100.153 68.1097 99.2864 68.1097Z" fill="#C4E6FC"/>
<path id="Combined Shape_2" fill-rule="evenodd" clip-rule="evenodd" d="M16.1626 90.1063C16.1626 107.719 30.4916 122.048 48.1041 122.048C65.717 122.048 80.046 107.719 80.046 90.1063C80.046 72.4935 65.717 58.1644 48.1041 58.1644C46.5635 58.1644 45.3152 59.4131 45.3152 60.9533C45.3152 62.4936 46.5635 63.7422 48.1041 63.7422C62.6414 63.7422 74.4682 75.5691 74.4682 90.1063C74.4682 104.643 62.6414 116.47 48.1041 116.47C33.5669 116.47 21.7404 104.643 21.7404 90.1063C21.7404 88.5657 20.4917 87.3174 18.9515 87.3174C17.4109 87.3174 16.1626 88.5657 16.1626 90.1063ZM48.1041 112.13C42.1496 112.13 36.5718 109.792 32.3974 105.545C31.3175 104.447 31.3324 102.681 32.4312 101.601C33.5301 100.522 35.2949 100.536 36.3751 101.635C39.4924 104.806 43.6579 106.552 48.1041 106.552C57.1725 106.552 64.5505 99.1744 64.5505 90.106C64.5505 81.0376 57.1725 73.66 48.1041 73.66C46.5635 73.66 45.3152 72.4113 45.3152 70.8711C45.3152 69.3309 46.5635 68.0822 48.1041 68.0822C60.2481 68.0822 70.1283 77.962 70.1283 90.106C70.1283 102.25 60.2481 112.13 48.1041 112.13ZM57.6315 92.8951C56.0909 92.8951 54.8425 91.6468 54.8425 90.1062C54.8425 86.3906 51.8197 83.3678 48.1042 83.3678C46.5636 83.3678 45.3153 82.1191 45.3153 80.5789C45.3153 79.0387 46.5636 77.79 48.1042 77.79C54.8953 77.79 60.4204 83.315 60.4204 90.1062C60.4204 91.6468 59.172 92.8951 57.6315 92.8951Z" fill="#629DFF"/>
<path id="Shape" fill-rule="evenodd" clip-rule="evenodd" d="M82.6531 51.4286C82.6531 50.9213 82.242 50.5103 81.7347 50.5103C81.2274 50.5103 80.8164 50.9213 80.8164 51.4286C80.8164 51.9359 81.2274 52.347 81.7347 52.347C82.242 52.347 82.6531 51.9359 82.6531 51.4286ZM78.5435 54.2511C78.9921 53.8802 79.4641 53.4899 79.9735 53.4319C79.8702 53.6082 79.7682 53.7843 79.6665 53.9597C79.2292 54.7144 78.7978 55.4587 78.2977 56.1737C77.8324 56.839 77.7911 56.8363 77.1991 56.7967C77.0965 56.7899 76.9773 56.7819 76.8366 56.7762L76.8059 56.7749C76.5375 56.764 76.2114 56.7507 75.7899 56.7429C75.1548 56.732 75.1402 57.7985 75.7746 57.8093C75.9195 57.812 76.1004 57.8217 76.2988 57.8324C76.9385 57.8669 77.7596 57.9112 78.1392 57.7589C78.5222 57.6059 78.7576 57.2659 78.9965 56.9209C79.0183 56.8893 79.0402 56.8577 79.0623 56.8261C79.0703 56.8147 79.0852 56.7925 79.1049 56.7633C79.2118 56.6046 79.4584 56.2386 79.4894 56.2645C79.5349 56.2989 79.6054 56.3439 79.6883 56.3969C80.051 56.6284 80.6531 57.0128 80.4592 57.3359C80.304 57.5953 80.0759 57.9077 79.8551 58.2102C79.691 58.4349 79.531 58.6542 79.4076 58.8423C79.0343 59.4116 79.8177 60.0389 80.1911 59.4696C80.2372 59.3982 80.3276 59.2731 80.4408 59.1164C80.8136 58.6003 81.4333 57.7422 81.5307 57.3398C81.6186 56.9759 81.5555 56.6368 81.2823 56.4011C81.1674 56.3035 80.8814 56.0694 80.6146 55.8519L81.739 54.12C81.8765 54.6381 81.9725 54.911 82.2535 55.1159C82.5642 55.3422 83.1767 55.3185 83.6671 55.2994C83.7923 55.2946 83.9096 55.29 84.0118 55.29C84.6492 55.29 84.6492 54.2193 84.0118 54.2193C83.7113 54.201 83.4831 54.2067 83.3072 54.2111C82.8053 54.2237 82.7301 54.2256 82.6174 53.6259C82.6064 53.5837 82.596 53.5392 82.5852 53.4935C82.5166 53.2011 82.4369 52.8616 82.1327 52.7878L80.6005 52.3613C79.3341 52.2704 78.9153 52.6195 78.2475 53.1761C78.0458 53.3442 77.8213 53.5312 77.544 53.7308C77.0119 54.1126 77.5379 55.0078 78.0701 54.6259C78.2253 54.5142 78.3829 54.3839 78.5435 54.2511Z" fill="#629DFF"/>
<g id="Path 6" style="mix-blend-mode:overlay">
<path d="M57.7842 59.527C57.7842 59.527 76.7725 67.3913 80.0461 87.1447" stroke="white" stroke-width="4" stroke-linecap="round" stroke-linejoin="round"/>
</g>
<g id="Path 6 Copy" style="mix-blend-mode:overlay">
<path d="M70.1283 92.8951C70.1283 92.8951 67.1894 107.768 52.8678 111.626" stroke="white" stroke-width="4" stroke-linecap="round" stroke-linejoin="round"/>
</g>
<g id="Path 6 Copy 2" style="mix-blend-mode:overlay">
<path d="M49.0384 77.79C49.0384 77.79 54.7344 78.3665 57.7842 82.7949" stroke="white" stroke-width="4" stroke-linecap="round" stroke-linejoin="round"/>
</g>
</g>
</svg>
