<svg width="30" height="30" viewBox="0 0 30 30" fill="none" xmlns="http://www.w3.org/2000/svg">
<circle cx="15" cy="15" r="15" fill="#4B6B92"/>
<path fill-rule="evenodd" clip-rule="evenodd" d="M14.8287 19.5467H15.7832C15.7832 19.5467 16.0715 19.5149 16.2187 19.3552C16.3542 19.2086 16.3499 18.9332 16.3499 18.9332C16.3499 18.9332 16.3312 17.6442 16.9257 17.4544C17.5117 17.2674 18.2641 18.7002 19.0617 19.2511C19.6648 19.668 20.1231 19.5766 20.1231 19.5766L22.2557 19.5467C22.2557 19.5467 23.3713 19.4776 22.8423 18.5948C22.799 18.5226 22.5343 17.9418 21.2567 16.7484C19.9196 15.4993 20.0986 15.7013 21.7094 13.5407C22.6904 12.2248 23.0825 11.4215 22.9601 11.0774C22.8432 10.7497 22.1217 10.8363 22.1217 10.8363L19.7205 10.8514C19.7205 10.8514 19.5426 10.8269 19.4105 10.9063C19.2815 10.9842 19.1985 11.1658 19.1985 11.1658C19.1985 11.1658 18.8185 12.184 18.3116 13.05C17.2424 14.8772 16.8149 14.9737 16.6402 14.8602C16.2337 14.5958 16.3351 13.7979 16.3351 13.2311C16.3351 11.4603 16.602 10.722 15.8155 10.5309C15.5545 10.4674 15.3624 10.4255 14.6949 10.4187C13.8381 10.4098 13.113 10.4213 12.7024 10.6238C12.4292 10.7584 12.2185 11.0584 12.3468 11.0757C12.5055 11.097 12.865 11.1732 13.0555 11.4343C13.3016 11.7712 13.2929 12.5279 13.2929 12.5279C13.2929 12.5279 13.4343 14.6124 12.9627 14.8713C12.6391 15.0489 12.1951 14.6863 11.2419 13.0286C10.7534 12.1794 10.3847 11.2408 10.3847 11.2408C10.3847 11.2408 10.3136 11.0654 10.1867 10.9716C10.0328 10.8579 9.81775 10.8217 9.81775 10.8217L7.53602 10.8367C7.53602 10.8367 7.1935 10.8463 7.06776 10.9962C6.95589 11.1295 7.05887 11.4053 7.05887 11.4053C7.05887 11.4053 8.84523 15.6114 10.8679 17.731C12.7225 19.6744 14.8287 19.5467 14.8287 19.5467Z" fill="white"/>
</svg>
